<svg width="79" height="62" viewBox="0 0 79 62" fill="none" xmlns="http://www.w3.org/2000/svg">
<path d="M11.3808 0.743173L73.3968 5.46217C70.5958 5.24917 67.5418 11.4502 66.0238 21.1352L4.00781 16.4152C5.52481 6.73117 8.57981 0.530173 11.3808 0.743173Z" fill="#C96732"/>
<path d="M62.6947 51.3652L0.679688 46.6452L4.00969 16.4152L66.0247 21.1342L62.6947 51.3652Z" fill="#C96732"/>
<path d="M1.17769 42.1192L0.679688 46.6452L62.6947 51.3652L63.1927 46.8382L1.17769 42.1192Z" fill="#FFD321"/>
<path d="M71.7117 61.2632L9.69669 56.5442L0.679688 46.6452L62.6947 51.3652L71.7117 61.2632Z" fill="#FF8800"/>
<path d="M75.0264 6.37618C78.1774 9.83618 79.2573 22.0512 77.4373 33.6642L71.7104 61.2632L62.6934 51.3652L66.0233 21.1352C67.8443 9.52018 71.8744 2.91618 75.0264 6.37618Z" fill="#AB4F28"/>
<path d="M63.1573 47.1522L62.6934 51.3652L71.7104 61.2632L72.5083 57.4172L63.1573 47.1522Z" fill="#FFAA00"/>
<path d="M66.0238 21.1342L4.00781 16.4142C4.34181 14.2882 4.74881 12.3292 5.21081 10.5692L67.2268 15.2892C66.7648 17.0492 66.3578 19.0072 66.0238 21.1342Z" fill="#FFD321"/>
<path opacity="0.8" d="M67.1263 15.7022C67.1603 15.5662 67.1923 15.4242 67.2283 15.2902L5.21233 10.5702C5.17733 10.7042 5.14533 10.8452 5.11133 10.9812L67.1263 15.7022Z" fill="white"/>
<path d="M4.09381 15.9032C4.06681 16.0752 4.03481 16.2412 4.00781 16.4152L66.0238 21.1352C66.0508 20.9612 66.0828 20.7952 66.1098 20.6232L4.09381 15.9032Z" fill="#F79400"/>
<path d="M7.56873 47.1692L10.8987 16.9382C12.4167 7.25416 15.4707 1.05317 18.2717 1.26617L11.3807 0.742165C8.57974 0.529165 5.52474 6.73016 4.00774 16.4142L0.677734 46.6442L7.56873 47.1692Z" fill="#FFD321"/>
<path d="M62.6937 51.3652L66.0237 21.1352C67.5417 11.4512 70.5957 5.25016 73.3967 5.46316L66.5057 4.93917C63.7047 4.72617 60.6507 10.9272 59.1327 20.6112L55.8027 50.8422L62.6937 51.3652Z" fill="#FFD321"/>
<path d="M67.1044 15.7712C66.6934 17.4062 66.3274 19.1982 66.0234 21.1342L77.4374 33.6642C77.7414 31.7262 77.9574 29.7732 78.1034 27.8452L67.1044 15.7712Z" fill="#FFAA00"/>
<path d="M34.0787 20.5732C32.5117 20.4732 31.0247 21.5912 30.7587 23.0692C30.5747 24.0762 31.0067 24.9922 31.7977 25.5022L30.4277 29.2062L34.6237 29.4772L34.6197 25.6392C35.5297 25.2232 36.2437 24.4092 36.4217 23.4322C36.6907 21.9562 35.6417 20.6742 34.0787 20.5732Z" fill="#964523"/>
</svg>
