<svg width="69" height="62" viewBox="0 0 69 62" fill="none" xmlns="http://www.w3.org/2000/svg">
<path d="M0.890625 43.9442C1.10162 43.0522 1.91563 42.2892 3.38463 41.7032C10.0196 39.0582 27.5426 41.0672 42.5216 46.1882C54.1816 50.1762 60.8636 54.8742 60.1176 58.0072C61.4826 52.2682 62.8446 46.5272 64.2076 40.7852C63.9966 41.6382 63.9966 41.6382 63.7366 41.9942C60.0066 39.9662 57.7506 28.2652 64.2896 24.7002C64.0476 21.5082 63.4906 17.5092 61.0606 9.91722C60.5786 9.67822 60.0786 9.43823 59.5586 9.19923C59.0376 8.95823 58.5016 8.72022 57.9456 8.48222C55.8736 9.80322 55.8736 9.80322 45.4166 15.9792C50.7686 21.8532 48.8126 30.2222 40.0336 29.6742C26.3816 28.8202 24.3426 19.7342 30.8446 14.7382C31.8936 13.9322 32.9186 13.5072 33.5306 13.2532C33.3316 12.8062 33.3316 12.8062 26.3806 0.774223C25.7826 0.728223 25.1916 0.68822 24.6126 0.65522C24.0366 0.62522 23.4676 0.59922 22.9136 0.58622C18.4976 4.90822 16.0426 7.69623 12.8096 12.0612C17.1496 17.2772 11.8776 26.3882 5.28063 27.9262C5.16963 27.7992 5.01663 27.6302 4.90563 27.5032C4.97563 26.7432 4.97563 26.7432 5.21263 25.7472L0.890625 43.9442Z" fill="#FF7B00"/>
<path opacity="0.5" d="M62.5187 47.8552C63.2647 44.7212 56.5827 40.0242 44.9227 36.0362C29.9437 30.9152 12.4207 28.9062 5.78568 31.5512C4.36567 32.1172 3.56267 32.8522 3.32067 33.7052L0.888672 43.9442C1.09967 43.0522 1.91368 42.2892 3.38268 41.7032C10.0177 39.0582 27.5407 41.0672 42.5197 46.1882C54.1797 50.1762 60.8617 54.8742 60.1157 58.0072C61.4807 52.2682 62.8427 46.5272 64.2057 40.7852C64.1487 41.0152 64.1077 41.1812 64.0727 41.3102C63.5567 43.4932 63.0367 45.6752 62.5187 47.8552Z" fill="#FF9900"/>
<path d="M67.0144 24.6662C67.3234 23.1262 67.4534 22.0832 67.4554 20.8522L68.0594 19.8272L67.3584 18.6922C67.1354 18.8192 66.8894 18.9412 66.6184 19.0552C66.5654 19.0762 66.5114 19.0992 66.4564 19.1212C66.3314 19.1722 66.2004 19.2192 66.0634 19.2672C64.7474 21.4232 64.7474 21.4232 57.5384 30.8712L57.7884 32.5662L58.7274 32.7892C60.4524 37.7122 56.1904 47.4612 46.6164 44.1212C41.2144 42.2352 40.4054 35.8122 45.7454 31.7462L47.9324 31.9662L48.1164 30.2962C45.6824 26.2112 43.2004 22.1542 40.7434 18.0822C40.0874 17.9372 39.4294 17.7892 38.7684 17.6332C38.1144 17.4772 37.4574 17.3142 36.8014 17.1462C24.5374 24.7022 24.5374 24.7022 24.4484 24.7712L23.1734 26.1872L25.9394 27.0142C26.3304 27.7312 26.5544 28.2922 26.6714 28.6462C28.7124 34.8372 23.6814 40.0152 16.2754 36.6382C9.4644 33.5342 10.6214 25.2052 13.9764 21.8832L14.0584 21.9282L15.7324 20.6992C14.2204 14.7242 13.8044 11.2932 13.5314 6.68322C13.3344 6.47322 13.1584 6.26322 13.0044 6.05622C12.8484 5.85022 12.7134 5.64622 12.6004 5.44822L10.7824 5.97422L10.3584 8.12822L11.5264 7.61122C11.1284 8.55022 10.8724 9.38722 10.5714 10.4882L8.9074 17.4942C7.9604 21.5502 7.9604 21.5502 7.2784 24.3522L3.1494 41.7482C2.4384 44.7432 8.8274 49.2342 19.9734 53.0462C34.2914 57.9422 51.0434 59.8632 57.3854 57.3332C58.7894 56.7732 59.5654 56.0442 59.7704 55.1902C61.0714 49.7042 62.3754 44.2152 63.6784 38.7272C64.3364 35.7992 64.3364 35.7992 65.7744 29.8952L67.0144 24.6662Z" fill="#FFAA00"/>
<path d="M11.7513 7.26722L13.5283 6.68422C13.3313 6.47422 13.1553 6.26422 13.0013 6.05722C12.8453 5.85122 12.7103 5.64723 12.5973 5.44923L10.7793 5.97522C10.7793 5.97522 11.1453 6.72222 11.7513 7.26722Z" fill="#FFFB21"/>
<path d="M68.0579 19.8262C67.8259 19.9592 67.5659 20.0872 67.2829 20.2072C67.2279 20.2312 67.1719 20.2542 67.1149 20.2762C66.9819 20.3302 66.8449 20.3802 66.7049 20.4282C65.3279 22.6852 65.3279 22.6852 57.7869 32.5662C58.1089 32.9182 58.5959 33.4492 58.9509 34.3422C60.9709 39.4102 56.5269 49.9742 46.3589 46.4262C39.9779 44.1992 39.7089 35.9092 47.9309 31.9652C45.3859 27.6912 42.7889 23.4472 40.2179 19.1882C39.5299 19.0392 38.8409 18.8812 38.1519 18.7172C37.4659 18.5552 36.7809 18.3852 36.0949 18.2092C23.2649 26.1122 23.2649 26.1122 23.1709 26.1862C24.6569 28.0862 25.2669 29.5412 25.4949 30.2412C27.6339 36.7152 22.3719 42.1322 14.6219 38.6002C6.35192 34.8302 9.30392 23.6882 14.0559 21.9272C12.4719 15.6772 12.0399 12.0862 11.7509 7.26622C11.5459 7.04322 11.3599 6.82722 11.1979 6.61022C11.0359 6.39522 10.8949 6.18322 10.7779 5.97422C9.56492 8.16422 9.17992 9.31322 8.65292 11.2452L6.91292 18.5732C5.92292 22.8162 5.92292 22.8162 5.20992 25.7472L0.889921 43.9432C0.147921 47.0782 6.82892 51.7762 18.4879 55.7632C33.4659 60.8842 50.9899 62.8932 57.6249 60.2482C59.0939 59.6622 59.9059 58.8982 60.1169 58.0062C61.4819 52.2672 62.8439 46.5262 64.2069 40.7842C64.8959 37.7222 64.8959 37.7222 66.3999 31.5462L67.6989 26.0732C68.1929 23.6282 68.2619 22.4002 68.0579 19.8262Z" fill="#FFD321"/>
<path d="M41.7918 38.9292C40.9398 42.2562 42.5708 45.5672 46.2588 46.8532C53.6728 49.4412 58.0378 44.5242 59.0788 39.7062C57.8798 44.3822 53.5538 48.9382 46.3578 46.4282C42.8288 45.1952 41.1808 42.1092 41.7918 38.9292Z" fill="#FFFB21"/>
<path d="M35.9929 18.6362C36.6809 18.8122 37.3639 18.9822 38.0499 19.1442C38.7409 19.3082 39.4309 19.4652 40.1159 19.6152C42.6319 23.7822 45.1689 27.9342 47.6629 32.1132C47.7569 32.0672 47.8349 32.0132 47.9299 31.9672C45.3849 27.6932 42.7879 23.4492 40.2169 19.1902C39.5289 19.0412 38.8399 18.8832 38.1509 18.7192C37.4649 18.5572 36.7799 18.3872 36.0939 18.2112C23.2639 26.1142 23.2639 26.1142 23.1699 26.1882C23.2339 26.2722 23.2909 26.3492 23.3519 26.4312C24.0319 26.0052 26.4949 24.4872 35.9929 18.6362Z" fill="#FFFB21"/>
<path d="M66.6051 20.8542C66.7441 20.8052 66.8801 20.7542 67.0131 20.7022C67.0721 20.6802 67.1261 20.6572 67.1831 20.6332C67.4661 20.5132 67.7241 20.3852 67.9561 20.2512C68.1591 22.8242 68.0891 24.0512 67.5991 26.4942L67.6991 26.0752C68.1931 23.6282 68.2621 22.4002 68.0581 19.8262C67.8261 19.9592 67.5661 20.0872 67.2831 20.2072C67.2281 20.2312 67.1721 20.2542 67.1151 20.2762C66.9821 20.3302 66.8451 20.3802 66.7051 20.4282C65.3281 22.6852 65.3281 22.6852 57.7871 32.5662C57.8221 32.6062 57.8671 32.6582 57.9061 32.7012C65.2231 23.1162 65.2421 23.0882 66.6051 20.8542Z" fill="#FFFB21"/>
<path d="M9.69542 27.9902C8.65442 31.9272 9.59942 36.7822 14.5234 39.0262C20.4274 41.7162 24.8754 39.2082 25.7204 34.9992C24.6674 38.9462 20.3244 41.1992 14.6224 38.6012C9.87542 36.4362 8.83042 31.8452 9.69542 27.9902Z" fill="#FFFB21"/>
<path d="M8.55448 11.6722C9.08148 9.73923 9.46448 8.59122 10.6775 6.40122C10.7945 6.61022 10.9355 6.82222 11.0975 7.03722C11.2615 7.25422 11.4475 7.47122 11.6505 7.69322C11.9335 12.4202 12.3635 15.9802 13.8735 22.0092C13.9345 21.9822 13.9965 21.9512 14.0575 21.9282C12.4735 15.6782 12.0415 12.0872 11.7525 7.26722C11.5475 7.04422 11.3615 6.82822 11.1995 6.61122C11.0375 6.39622 10.8965 6.18422 10.7795 5.97522C9.56648 8.16522 9.18148 9.31422 8.65448 11.2462L6.91448 18.5742C6.90848 18.6012 6.90248 18.6222 6.89648 18.6472L8.55448 11.6722Z" fill="#FFFB21"/>
<path d="M34.1215 35.7492L28.4535 38.5882L26.8125 45.5192L30.6075 50.5972L36.2735 47.7582L37.9125 40.8262L34.1215 35.7492Z" fill="#FF7B00"/>
<path d="M32.4805 42.6792L30.7035 40.3682L28.4535 38.5882L26.8125 45.5192L29.6235 44.9352L32.4805 42.6792Z" fill="#0E4DA1"/>
<path d="M32.4801 42.6792L34.1211 35.7492L28.4531 38.5882L30.7031 40.3682L32.4801 42.6792Z" fill="#156FE8"/>
<path d="M35.1035 41.4092L37.9125 40.8262L34.1215 35.7492L32.4805 42.6792L35.1035 41.4092Z" fill="#21C4FF"/>
<path d="M35.1035 41.4092L32.4805 42.6792L34.0235 45.9772L36.2735 47.7582L37.9125 40.8262L35.1035 41.4092Z" fill="#2181FF"/>
<path opacity="0.4" d="M35.1035 41.4092L32.4805 42.6792L34.0235 45.9772L36.2735 47.7582L37.9125 40.8262L35.1035 41.4092Z" fill="white"/>
<path d="M32.4804 42.6792L30.6074 50.5972L36.2734 47.7582L34.0234 45.9772L32.4804 42.6792Z" fill="#156FE8"/>
<path d="M29.6235 44.9352L26.8125 45.5192L30.6075 50.5972L32.4805 42.6792L29.6235 44.9352Z" fill="#125FC7"/>
<path d="M29.623 44.9352L30.703 40.3682L33.34 39.0492L35.1031 41.4092L34.023 45.9772L31.389 47.2962L29.623 44.9352Z" fill="#2181FF"/>
<path d="M61.3461 52.8172C61.1351 53.7092 60.3231 54.4732 58.8521 55.0582C52.2171 57.7032 34.6961 55.6952 19.7171 50.5732C8.06314 46.5892 1.38514 41.8942 2.12114 38.7602L1.85114 39.8902C1.10714 43.0252 7.78914 47.7232 19.4471 51.7092C34.4271 56.8312 51.9491 58.8402 58.5841 56.1942C60.0531 55.6092 60.8651 54.8442 61.0781 53.9532C62.4411 48.2132 63.8051 42.4722 65.1661 36.7312C65.1721 36.7042 65.1781 36.6812 65.1841 36.6552C63.9061 42.0432 62.6271 47.4312 61.3461 52.8172Z" fill="#FFFB21"/>
<path d="M61.4223 52.4932C61.2113 53.3862 60.3993 54.1492 58.9303 54.7352C52.2953 57.3802 34.7723 55.3712 19.7933 50.2492C8.14131 46.2652 1.46131 41.5702 2.19731 38.4352L1.92731 39.5652C1.18331 42.7002 7.86531 47.3982 19.5253 51.3842C34.5043 56.5062 52.0253 58.5152 58.6603 55.8692C60.1293 55.2842 60.9433 54.5192 61.1543 53.6282C62.5173 47.8882 63.8813 42.1482 65.2423 36.4062C65.2503 36.3802 65.2543 36.3562 65.2623 36.3302C63.9823 41.7192 62.7033 47.1062 61.4223 52.4932Z" fill="#FFAA00"/>
<path d="M36.8007 17.1452L36.0957 18.2102L40.2187 19.1882L40.7417 18.0822L36.8007 17.1452Z" fill="#FFFB21"/>
</svg>
