<svg width="187" height="187" viewBox="0 0 187 187" fill="none" xmlns="http://www.w3.org/2000/svg">
<path d="M155.527 124.528C172.775 90.2499 158.97 48.4794 124.692 31.231C90.414 13.9826 48.6435 27.7879 31.3951 62.066C14.1467 96.3441 27.952 138.115 62.2301 155.363C96.5082 172.611 138.279 158.806 155.527 124.528Z" fill="#5BCACE"/>
<mask id="mask0_58_10807" style="mask-type:luminance" maskUnits="userSpaceOnUse" x="23" y="23" width="140" height="140">
<path d="M155.524 124.528C172.772 90.2504 158.967 48.4807 124.69 31.2326C90.4124 13.9845 48.6426 27.7895 31.3945 62.067C14.1464 96.3445 27.9515 138.114 62.229 155.362C96.5065 172.611 138.276 158.805 155.524 124.528Z" fill="white"/>
</mask>
<g mask="url(#mask0_58_10807)">
<path d="M116.409 23.9591C114.094 21.7869 110.166 22.2662 107.685 24.2471C105.204 26.2256 103.876 29.2952 102.882 32.3087C101.885 35.3223 101.094 38.4683 99.3276 41.1071C95.7583 46.4407 88.8771 48.7429 85.6826 54.5762C84.7087 56.3583 84.2472 58.4336 84.5965 60.435C85.4582 65.4014 90.1417 66.6915 94.1342 66.1332C96.9922 65.7329 99.6692 64.5448 102.446 63.7621C108.205 62.1407 114.439 62.3905 120.106 64.2975C123.678 65.4983 123.788 70.5744 120.308 72.02C118.638 72.7135 117.044 73.5548 115.576 74.623C111.586 77.5346 108.74 82.5979 109.923 87.3936C110.742 90.7054 113.256 93.2881 115.67 95.6974C121.011 101.028 126.35 106.362 131.691 111.693C134.893 114.89 138.72 118.352 143.513 116.978C146.547 116.109 148.712 113.493 149.566 110.457C151.096 105.018 148.9 99.7103 146.476 94.8713C144.258 90.4428 141.744 85.9812 141.989 80.8592C142.086 78.8553 142.697 76.8692 143.883 75.2502C147.437 70.3908 152.76 72.0965 157.525 71.3776C165.516 70.1691 170.989 61.9647 171.652 53.9108C172.315 45.8569 169.256 37.9916 165.911 30.6362" fill="#0BA857"/>
</g>
<mask id="mask1_58_10807" style="mask-type:luminance" maskUnits="userSpaceOnUse" x="23" y="23" width="140" height="140">
<path d="M155.524 124.528C172.772 90.2504 158.967 48.4807 124.69 31.2326C90.4124 13.9845 48.6426 27.7895 31.3945 62.067C14.1464 96.3445 27.9515 138.114 62.229 155.362C96.5065 172.611 138.276 158.805 155.524 124.528Z" fill="white"/>
</mask>
<g mask="url(#mask1_58_10807)">
<path d="M9.51367 86.6798C10.2964 93.7802 11.1275 101.049 14.2966 107.453C17.4656 113.858 23.4978 119.326 30.6288 119.77C35.9037 120.099 40.9263 117.718 46.112 116.688C51.2952 115.658 57.7174 116.596 60.119 121.307C61.8858 124.775 60.8023 128.92 60.6978 132.808C60.3434 145.885 71.1253 156.241 81.0506 164.764C84.3751 167.619 87.7813 170.526 91.8452 172.17C95.9092 173.815 100.825 174.003 104.463 171.561C107.894 169.256 109.613 165.006 109.86 160.878C110.107 156.751 109.088 152.666 108.075 148.659C105.982 140.357 103.889 132.059 101.796 123.757C99.9502 116.438 96.8907 107.861 89.5456 106.133C83.8168 104.784 77.8994 108.414 72.0814 107.532C67.7676 106.88 63.979 103.542 62.7858 99.3458C61.5927 95.1493 63.0561 90.3179 66.3807 87.4931C68.4024 85.7721 70.9774 84.7906 72.9609 83.0238C74.9419 81.257 76.2014 78.1211 74.6589 75.9591C71.8825 72.0685 64.698 76.1069 61.2561 72.7926C59.6219 71.217 59.6066 68.5476 60.4046 66.4213C61.2026 64.295 62.6482 62.4823 63.6731 60.4555C67.7344 52.422 64.3538 42.2315 58.0641 35.7914C51.7719 29.3513 43.1673 25.8202 34.8176 22.4548" fill="#0BA857"/>
</g>
</svg>
