<svg width="294" height="283" viewBox="0 0 294 283" fill="none" xmlns="http://www.w3.org/2000/svg">
<path opacity="0.3" d="M212.153 273.543C215.101 270.209 218.019 267.321 221.461 264.5C223.459 262.861 226.022 263.815 226.814 266.159C228.429 270.934 230.045 275.709 231.66 280.484C232.341 282.499 229.269 283.429 228.312 281.73C226.549 278.61 224.786 275.491 223.023 272.371C221.038 274.497 218.993 276.542 216.713 278.523C213.362 281.431 209.329 276.74 212.153 273.543ZM190.332 270.353C192.612 268.372 194.658 266.327 196.642 264.201C198.405 267.321 200.168 270.44 201.931 273.56C202.892 275.256 205.961 274.329 205.279 272.314C203.664 267.539 202.049 262.764 200.433 257.989C199.641 255.648 197.079 254.694 195.081 256.33C191.639 259.154 188.717 262.038 185.769 265.373C182.945 268.573 186.981 273.264 190.332 270.353ZM163.948 262.186C166.228 260.205 168.274 258.16 170.258 256.034C172.021 259.154 173.784 262.274 175.547 265.393C176.504 267.089 179.577 266.162 178.895 264.147C177.28 259.372 175.664 254.597 174.049 249.822C173.257 247.481 170.695 246.528 168.697 248.166C165.255 250.991 162.333 253.875 159.388 257.21C156.561 260.406 160.597 265.094 163.948 262.186ZM137.564 254.019C139.844 252.038 141.889 249.993 143.874 247.868C145.637 250.987 147.4 254.107 149.163 257.226C150.12 258.926 153.192 257.995 152.511 255.981C150.896 251.205 149.28 246.43 147.665 241.655C146.873 239.315 144.311 238.358 142.312 240C138.87 242.82 135.949 245.708 133.004 249.043C130.177 252.236 134.21 256.928 137.564 254.019ZM111.18 245.849C113.46 243.868 115.505 241.823 117.49 239.697C119.253 242.817 121.016 245.937 122.779 249.056C123.739 250.755 126.808 249.825 126.127 247.81C124.512 243.035 122.896 238.26 121.281 233.485C120.489 231.145 117.926 230.187 115.928 231.83C112.486 234.654 109.565 237.538 106.62 240.873C103.792 244.07 107.825 248.761 111.18 245.849ZM84.7961 237.683C87.0762 235.701 89.1211 233.656 91.1057 231.531C92.8687 234.65 94.6284 237.77 96.3914 240.89C97.3484 242.589 100.421 241.659 99.7394 239.644C98.1242 234.869 96.509 230.093 94.8938 225.318C94.1013 222.978 91.5389 222.024 89.5409 223.663C86.0989 226.484 83.1776 229.371 80.2292 232.706C77.4084 235.903 81.4414 240.594 84.7961 237.683ZM58.412 229.516C60.6921 227.535 62.737 225.49 64.7216 223.364C66.4846 226.484 68.2477 229.603 70.0073 232.723C70.9677 234.422 74.037 233.492 73.3553 231.477C71.7401 226.702 70.1247 221.927 68.5095 217.152C67.717 214.811 65.1515 213.854 63.1568 215.493C59.7148 218.317 56.7933 221.201 53.8449 224.536C51.0242 227.733 55.0607 232.424 58.412 229.516ZM32.0279 221.349C34.308 219.368 36.353 217.323 38.3376 215.197C40.1005 218.317 41.8636 221.436 43.6265 224.556C44.5869 226.252 47.6562 225.325 46.9745 223.31C45.3593 218.535 43.7441 213.76 42.1289 208.985C41.3364 206.644 38.7742 205.691 36.7762 207.326C33.3342 210.15 30.4127 213.035 27.4643 216.369C24.6402 219.566 28.6733 224.257 32.0279 221.349ZM5.64386 213.179C7.92397 211.198 9.9689 209.153 11.9535 207.027C13.7165 210.147 15.4795 213.266 17.2424 216.386C18.2028 218.082 21.2721 217.155 20.5904 215.14C18.9752 210.365 17.36 205.59 15.7448 200.815C14.9523 198.474 12.3902 197.521 10.3921 199.159C6.95014 201.983 4.02854 204.868 1.08354 208.202C-1.74393 211.399 2.28918 216.09 5.64386 213.179ZM218.966 251.582C221.915 248.247 224.836 245.359 228.275 242.538C230.273 240.9 232.838 241.853 233.628 244.197C235.243 248.972 236.858 253.747 238.473 258.523C239.155 260.537 236.082 261.468 235.125 259.768C233.362 256.649 231.599 253.529 229.836 250.41C227.852 252.535 225.807 254.58 223.527 256.562C220.179 259.466 216.142 254.778 218.966 251.582ZM197.146 248.391C199.426 246.41 201.471 244.365 203.456 242.239C205.219 245.359 206.982 248.479 208.745 251.598C209.702 253.297 212.774 252.367 212.092 250.352C210.477 245.577 208.862 240.802 207.247 236.027C206.454 233.687 203.892 232.733 201.894 234.368C198.452 237.192 195.531 240.077 192.586 243.411C189.758 246.608 193.794 251.299 197.146 248.391ZM170.762 240.221C173.042 238.24 175.087 236.195 177.072 234.069C178.835 237.189 180.594 240.309 182.361 243.428C183.321 245.127 186.39 244.197 185.708 242.182C184.093 237.407 182.478 232.632 180.863 227.857C180.07 225.516 177.508 224.563 175.51 226.201C172.068 229.026 169.146 231.91 166.198 235.245C163.374 238.442 167.41 243.133 170.762 240.221ZM144.378 232.055C146.658 230.073 148.703 228.028 150.688 225.903C152.45 229.022 154.213 232.142 155.973 235.261C156.933 236.957 160.003 236.03 159.321 234.016C157.706 229.241 156.091 224.465 154.475 219.69C153.683 217.35 151.117 216.393 149.123 218.031C145.681 220.856 142.759 223.74 139.811 227.075C136.99 230.275 141.026 234.966 144.378 232.055ZM117.994 223.888C120.274 221.907 122.319 219.862 124.303 217.736C126.066 220.855 127.829 223.975 129.589 227.095C130.549 228.791 133.619 227.864 132.937 225.849C131.322 221.074 129.706 216.299 128.091 211.524C127.299 209.183 124.737 208.229 122.739 209.868C119.297 212.692 116.375 215.577 113.427 218.911C110.606 222.108 114.642 226.796 117.994 223.888ZM91.6095 215.721C93.8896 213.74 95.9312 211.695 97.9191 209.569C99.6821 212.689 101.445 215.808 103.205 218.928C104.165 220.624 107.234 219.697 106.553 217.682C104.938 212.907 103.322 208.132 101.71 203.357C100.918 201.016 98.3524 200.063 96.3578 201.701C92.9158 204.525 89.9942 207.41 87.0492 210.744C84.2217 213.938 88.2582 218.629 91.6095 215.721ZM65.2254 207.551C67.5055 205.57 69.5505 203.525 71.5351 201.399C73.298 204.519 75.0577 207.638 76.824 210.758C77.7811 212.457 80.8537 211.527 80.172 209.512C78.5568 204.737 76.9416 199.962 75.3264 195.187C74.5339 192.846 71.9717 191.889 69.9737 193.528C66.5317 196.349 63.6101 199.236 60.6651 202.571C57.8376 205.771 61.8741 210.462 65.2254 207.551ZM38.8414 199.384C41.1215 197.403 43.1664 195.358 45.151 193.232C46.914 196.352 48.6737 199.472 50.4367 202.591C51.3971 204.29 54.4663 203.36 53.7847 201.345C52.1694 196.57 50.5541 191.795 48.9388 187.02C48.1463 184.679 45.5842 183.726 43.5861 185.361C40.1442 188.185 37.2228 191.07 34.2745 194.404C31.4537 197.604 35.49 202.296 38.8414 199.384ZM12.4573 191.217C14.7374 189.236 16.7823 187.191 18.7669 185.066C20.5299 188.185 22.293 191.305 24.0526 194.424C25.013 196.12 28.0821 195.193 27.4004 193.179C25.7852 188.403 24.17 183.628 22.5548 178.853C21.7623 176.513 19.2001 175.559 17.2021 177.194C13.7601 180.018 10.8386 182.903 7.8902 186.238C5.06945 189.438 9.10597 194.126 12.4573 191.217ZM225.783 229.617C228.732 226.282 231.653 223.394 235.095 220.573C237.093 218.935 239.655 219.888 240.448 222.229C242.063 227.004 243.678 231.779 245.293 236.554C245.975 238.569 242.902 239.499 241.945 237.8C240.182 234.681 238.419 231.561 236.656 228.441C234.672 230.567 232.627 232.612 230.347 234.593C226.992 237.505 222.956 232.813 225.783 229.617ZM203.959 226.426C206.239 224.445 208.284 222.4 210.269 220.275C212.032 223.394 213.795 226.514 215.558 229.633C216.518 231.333 219.588 230.402 218.906 228.388C217.291 223.612 215.676 218.837 214.06 214.062C213.268 211.722 210.706 210.768 208.707 212.403C205.266 215.227 202.344 218.112 199.399 221.447C196.572 224.647 200.608 229.338 203.959 226.426ZM177.575 218.26C179.855 216.279 181.9 214.233 183.885 212.108C185.648 215.227 187.411 218.347 189.17 221.467C190.131 223.162 193.2 222.236 192.518 220.221C190.903 215.446 189.288 210.671 187.673 205.895C186.88 203.555 184.318 202.601 182.32 204.237C178.878 207.061 175.957 209.945 173.012 213.28C170.187 216.48 174.224 221.168 177.575 218.26ZM151.191 210.093C153.471 208.112 155.516 206.067 157.501 203.941C159.264 207.061 161.027 210.18 162.786 213.3C163.743 214.996 166.816 214.069 166.134 212.054C164.519 207.279 162.904 202.504 161.289 197.729C160.496 195.388 157.934 194.434 155.936 196.073C152.494 198.897 149.573 201.782 146.624 205.116C143.803 208.31 147.84 213.001 151.191 210.093ZM124.807 201.923C127.087 199.942 129.132 197.897 131.117 195.771C132.88 198.891 134.643 202.01 136.406 205.13C137.366 206.826 140.435 205.899 139.754 203.884C138.138 199.109 136.523 194.334 134.908 189.559C134.115 187.218 131.553 186.264 129.555 187.903C126.113 190.727 123.192 193.612 120.247 196.946C117.419 200.143 121.456 204.834 124.807 201.923ZM98.4229 193.756C100.703 191.775 102.748 189.73 104.733 187.604C106.496 190.724 108.259 193.843 110.018 196.963C110.979 198.659 114.048 197.732 113.366 195.717C111.751 190.942 110.136 186.167 108.521 181.392C107.728 179.051 105.166 178.098 103.168 179.736C99.7259 182.56 96.8044 185.445 93.8561 188.78C91.0353 191.976 95.0716 196.668 98.4229 193.756ZM72.0389 185.589C74.319 183.608 76.3607 181.563 78.3487 179.437C80.1117 182.557 81.8745 185.677 83.6375 188.796C84.5978 190.495 87.6671 189.565 86.9854 187.55C85.3702 182.775 83.755 178 82.1398 173.225C81.3473 170.885 78.7852 169.931 76.7871 171.57C73.3451 174.39 70.4236 177.278 67.4753 180.613C64.6512 183.806 68.6875 188.497 72.0389 185.589ZM45.6548 177.419C47.9349 175.438 49.9798 173.393 51.9644 171.267C53.7274 174.387 55.487 177.507 57.2534 180.626C58.2104 182.325 61.2831 181.395 60.6014 179.38C58.9862 174.605 57.3709 169.83 55.759 165.055C54.9665 162.714 52.4044 161.761 50.4063 163.396C46.9644 166.22 44.0429 169.105 41.098 172.439C38.2671 175.64 42.3035 180.331 45.6548 177.419ZM19.2707 169.253C21.5508 167.271 23.5958 165.226 25.5804 163.101C27.3433 166.22 29.1063 169.34 30.8693 172.459C31.8297 174.159 34.899 173.228 34.2173 171.214C32.6021 166.439 30.9869 161.663 29.3717 156.888C28.5792 154.548 26.017 153.594 24.019 155.229C20.577 158.053 17.6555 160.938 14.7071 164.273C11.883 167.473 15.9194 172.164 19.2707 169.253ZM232.597 207.655C235.545 204.321 238.463 201.436 241.905 198.612C243.903 196.973 246.465 197.927 247.258 200.267C248.873 205.043 250.488 209.818 252.104 214.593C252.785 216.608 249.716 217.538 248.756 215.839C246.993 212.719 245.23 209.599 243.467 206.48C241.482 208.605 239.437 210.65 237.157 212.632C233.806 215.54 229.769 210.849 232.597 207.655ZM210.773 204.462C213.053 202.48 215.098 200.435 217.083 198.31C218.845 201.429 220.608 204.549 222.371 207.668C223.332 209.368 226.401 208.437 225.719 206.423C224.104 201.648 222.489 196.872 220.874 192.097C220.081 189.757 217.519 188.803 215.521 190.438C212.079 193.263 209.158 196.15 206.213 199.482C203.388 202.682 207.422 207.373 210.773 204.462ZM184.389 196.295C186.672 194.314 188.714 192.269 190.698 190.143C192.461 193.263 194.224 196.382 195.987 199.502C196.944 201.201 200.017 200.271 199.335 198.256C197.72 193.481 196.105 188.706 194.49 183.931C193.697 181.59 191.135 180.636 189.137 182.275C185.695 185.096 182.773 187.984 179.828 191.318C177.004 194.515 181.037 199.206 184.389 196.295ZM158.008 188.128C160.288 186.147 162.333 184.102 164.318 181.976C166.081 185.096 167.844 188.215 169.607 191.335C170.567 193.034 173.636 192.104 172.955 190.089C171.339 185.314 169.724 180.539 168.109 175.764C167.316 173.423 164.754 172.47 162.756 174.108C159.314 176.929 156.393 179.817 153.448 183.151C150.62 186.348 154.653 191.036 158.008 188.128ZM131.62 179.961C133.901 177.98 135.946 175.935 137.93 173.809C139.693 176.929 141.453 180.049 143.216 183.168C144.173 184.864 147.245 183.937 146.564 181.922C144.949 177.147 143.333 172.372 141.718 167.597C140.926 165.256 138.36 164.303 136.365 165.942C132.923 168.766 130.002 171.65 127.054 174.985C124.236 178.178 128.269 182.869 131.62 179.961ZM105.236 171.795C107.516 169.813 109.562 167.768 111.546 165.643C113.309 168.762 115.072 171.882 116.835 175.002C117.796 176.701 120.865 175.77 120.183 173.756C118.568 168.981 116.953 164.205 115.337 159.43C114.545 157.09 111.983 156.136 109.985 157.775C106.543 160.596 103.621 163.483 100.673 166.818C97.852 170.011 101.885 174.703 105.236 171.795ZM78.8523 163.624C81.1324 161.643 83.1775 159.598 85.1621 157.473C86.9251 160.592 88.688 163.712 90.4476 166.831C91.408 168.531 94.4773 167.6 93.7956 165.586C92.1804 160.81 90.5652 156.035 88.95 151.26C88.1575 148.92 85.5953 147.966 83.5973 149.605C80.1553 152.429 77.2338 155.313 74.2854 158.648C71.468 161.845 75.501 166.536 78.8523 163.624ZM52.4715 155.458C54.7516 153.477 56.7934 151.431 58.7813 149.306C60.5443 152.425 62.3073 155.545 64.0703 158.665C65.0307 160.364 68.1 159.434 67.4183 157.419C65.8031 152.644 64.1879 147.869 62.5727 143.093C61.7802 140.753 59.2178 139.799 57.2198 141.435C53.7778 144.255 50.8564 147.143 47.9114 150.478C45.0839 153.678 49.1168 158.369 52.4715 155.458ZM26.0841 147.291C28.3643 145.31 30.4092 143.265 32.3938 141.139C34.1568 144.259 35.9198 147.378 37.6795 150.498C38.6399 152.197 41.7091 151.267 41.0274 149.252C39.4122 144.477 37.797 139.702 36.1818 134.927C35.3893 132.586 32.8238 131.632 30.8291 133.268C27.3871 136.092 24.4655 138.977 21.5205 142.311C18.6964 145.508 22.7328 150.199 26.0841 147.291ZM239.41 185.69C242.358 182.356 245.28 179.468 248.722 176.647C250.72 175.008 253.282 175.962 254.075 178.302C255.69 183.078 257.305 187.853 258.92 192.628C259.602 194.643 256.529 195.573 255.572 193.874C253.809 190.754 252.05 187.634 250.283 184.515C248.299 186.64 246.254 188.686 243.974 190.667C240.619 193.578 236.586 188.887 239.41 185.69ZM217.59 182.5C219.87 180.519 221.915 178.474 223.899 176.348C225.662 179.468 227.422 182.587 229.188 185.707C230.145 187.406 233.218 186.476 232.536 184.461C230.921 179.686 229.306 174.911 227.691 170.136C226.898 167.795 224.336 166.841 222.338 168.48C218.896 171.301 215.974 174.189 213.026 177.523C210.202 180.72 214.235 185.408 217.59 182.5ZM191.205 174.333C193.486 172.352 195.531 170.307 197.515 168.181C199.278 171.301 201.041 174.421 202.801 177.54C203.761 179.239 206.83 178.309 206.149 176.294C204.534 171.519 202.918 166.744 201.303 161.969C200.511 159.628 197.949 158.675 195.95 160.31C192.508 163.134 189.587 166.019 186.639 169.353C183.818 172.55 187.851 177.241 191.205 174.333ZM164.821 166.163C167.102 164.182 169.146 162.137 171.131 160.011C172.894 163.131 174.657 166.25 176.42 169.37C177.38 171.066 180.45 170.139 179.768 168.124C178.153 163.349 176.538 158.574 174.922 153.799C174.13 151.458 171.568 150.501 169.57 152.14C166.128 154.964 163.206 157.849 160.258 161.183C157.434 164.383 161.467 169.075 164.821 166.163ZM138.437 157.996C140.717 156.015 142.762 153.97 144.747 151.845C146.51 154.964 148.273 158.084 150.033 161.203C150.993 162.899 154.062 161.972 153.381 159.958C151.765 155.182 150.15 150.407 148.535 145.632C147.743 143.292 145.18 142.338 143.182 143.977C139.74 146.801 136.819 149.685 133.874 153.02C131.05 156.217 135.083 160.908 138.437 157.996ZM112.053 149.83C114.333 147.848 116.378 145.803 118.363 143.678C120.126 146.797 121.889 149.917 123.652 153.037C124.609 154.736 127.682 153.806 127 151.791C125.385 147.016 123.769 142.241 122.154 137.465C121.362 135.125 118.796 134.171 116.802 135.81C113.36 138.634 110.438 141.519 107.49 144.853C104.666 148.05 108.699 152.738 112.053 149.83ZM85.6692 141.663C87.9493 139.682 89.9942 137.637 91.9788 135.511C93.7418 138.631 95.5048 141.75 97.2678 144.87C98.2282 146.566 101.297 145.639 100.616 143.624C99.0006 138.849 97.3854 134.074 95.7702 129.299C94.9777 126.958 92.4155 126.004 90.4175 127.643C86.9755 130.464 84.0539 133.352 81.1089 136.686C78.2814 139.88 82.3145 144.571 85.6692 141.663ZM59.2851 133.493C61.5652 131.512 63.6102 129.467 65.5948 127.341C67.3577 130.461 69.1208 133.58 70.8837 136.7C71.8441 138.399 74.9134 137.469 74.2317 135.454C72.6165 130.679 71.0013 125.904 69.3861 121.129C68.5936 118.788 66.0314 117.834 64.0334 119.473C60.5914 122.294 57.6699 125.182 54.7215 128.516C51.8974 131.713 55.9305 136.404 59.2851 133.493ZM32.9009 125.326C35.181 123.345 37.2261 121.3 39.2107 119.174C40.9737 122.294 42.7367 125.413 44.4996 128.533C45.4567 130.232 48.5293 129.302 47.8476 127.287C46.2324 122.512 44.6172 117.737 43.002 112.962C42.2095 110.621 39.6472 109.668 37.6491 111.303C34.2071 114.127 31.2857 117.012 28.3407 120.346C25.5133 123.546 29.5462 128.238 32.9009 125.326ZM246.223 163.725C249.172 160.391 252.093 157.506 255.532 154.682C257.53 153.043 260.092 153.997 260.885 156.338C262.5 161.113 264.115 165.888 265.73 170.663C266.412 172.678 263.339 173.608 262.382 171.909C260.619 168.789 258.857 165.67 257.097 162.55C255.112 164.676 253.067 166.721 250.787 168.702C247.436 171.613 243.399 166.922 246.223 163.725ZM224.403 160.535C226.686 158.554 228.728 156.509 230.713 154.383C232.476 157.503 234.239 160.622 236.002 163.742C236.959 165.441 240.031 164.511 239.35 162.496C237.734 157.721 236.119 152.946 234.504 148.171C233.711 145.83 231.149 144.877 229.151 146.515C225.709 149.339 222.788 152.224 219.843 155.558C217.015 158.755 221.052 163.447 224.403 160.535ZM198.019 152.368C200.299 150.387 202.344 148.342 204.329 146.216C206.092 149.336 207.851 152.456 209.618 155.575C210.575 157.274 213.647 156.344 212.965 154.329C211.35 149.554 209.735 144.779 208.123 140.004C207.331 137.664 204.769 136.71 202.771 138.345C199.329 141.169 196.407 144.054 193.462 147.388C190.631 150.589 194.664 155.28 198.019 152.368ZM171.635 144.202C173.915 142.22 175.96 140.175 177.945 138.05C179.708 141.169 181.47 144.289 183.233 147.409C184.194 149.108 187.263 148.178 186.581 146.163C184.966 141.388 183.351 136.612 181.736 131.837C180.943 129.497 178.381 128.543 176.383 130.182C172.941 133.003 170.02 135.89 167.075 139.225C164.247 142.422 168.284 147.113 171.635 144.202ZM145.251 136.035C147.534 134.054 149.576 132.009 151.561 129.883C153.324 133.003 155.086 136.122 156.849 139.242C157.81 140.941 160.879 140.011 160.197 137.996C158.582 133.221 156.967 128.446 155.352 123.671C154.559 121.33 151.997 120.376 149.999 122.015C146.557 124.839 143.636 127.724 140.687 131.058C137.863 134.252 141.899 138.943 145.251 136.035ZM118.867 127.868C121.147 125.887 123.192 123.842 125.176 121.716C126.939 124.836 128.702 127.955 130.462 131.075C131.422 132.771 134.492 131.844 133.81 129.829C132.195 125.054 130.58 120.279 128.964 115.504C128.172 113.163 125.61 112.21 123.611 113.848C120.169 116.672 117.248 119.557 114.303 122.892C111.479 126.085 115.512 130.776 118.867 127.868ZM92.4826 119.698C94.7627 117.717 96.8077 115.672 98.7923 113.546C100.555 116.666 102.318 119.785 104.078 122.905C105.038 124.604 108.108 123.674 107.426 121.659C105.811 116.884 104.195 112.109 102.58 107.334C101.788 104.993 99.2254 104.039 97.2274 105.678C93.7854 108.499 90.8641 111.387 87.9157 114.721C85.095 117.918 89.128 122.609 92.4826 119.698ZM66.0986 111.531C68.3787 109.55 70.4236 107.505 72.4082 105.379C74.1712 108.499 75.9308 111.619 77.6971 114.738C78.6542 116.437 81.7268 115.507 81.0451 113.492C79.4299 108.717 77.8147 103.942 76.1995 99.167C75.407 96.8264 72.8449 95.8694 70.8468 97.5115C67.4048 100.336 64.4832 103.22 61.5382 106.555C58.7108 109.748 62.7472 114.439 66.0986 111.531ZM39.7145 103.365C41.9946 101.383 44.0395 99.3382 46.0241 97.2126C47.7871 100.332 49.5501 103.452 51.3131 106.571C52.2735 108.271 55.3427 107.34 54.6611 105.326C53.0458 100.55 51.4307 95.7754 49.8154 91.0002C49.0229 88.6597 46.4608 87.706 44.4628 89.3447C41.0208 92.1688 38.0992 95.0534 35.1542 98.3879C32.3267 101.581 36.3632 106.273 39.7145 103.365ZM253.04 141.764C255.989 138.429 258.91 135.541 262.349 132.72C264.347 131.082 266.909 132.035 267.702 134.376C269.317 139.151 270.932 143.926 272.547 148.701C273.229 150.716 270.156 151.646 269.199 149.947C267.436 146.828 265.673 143.708 263.91 140.588C261.926 142.714 259.881 144.759 257.6 146.74C254.249 149.652 250.213 144.961 253.04 141.764ZM231.216 138.574C233.497 136.592 235.542 134.547 237.526 132.422C239.289 135.541 241.052 138.661 242.812 141.78C243.772 143.476 246.841 142.549 246.16 140.535C244.545 135.76 242.929 130.984 241.314 126.209C240.522 123.869 237.959 122.915 235.961 124.554C232.519 127.378 229.598 130.262 226.65 133.597C223.829 136.79 227.865 141.482 231.216 138.574ZM204.832 130.407C207.112 128.426 209.158 126.381 211.142 124.255C212.905 127.374 214.668 130.494 216.431 133.614C217.392 135.313 220.461 134.383 219.779 132.368C218.164 127.593 216.549 122.818 214.933 118.043C214.141 115.702 211.579 114.745 209.581 116.387C206.139 119.208 203.217 122.096 200.272 125.43C197.445 128.624 201.481 133.315 204.832 130.407ZM178.448 122.237C180.728 120.255 182.774 118.21 184.758 116.085C186.521 119.204 188.284 122.324 190.047 125.444C191.004 127.143 194.077 126.213 193.395 124.198C191.78 119.423 190.165 114.648 188.553 109.872C187.76 107.532 185.198 106.578 183.2 108.214C179.758 111.038 176.836 113.922 173.891 117.257C171.061 120.457 175.097 125.148 178.448 122.237ZM152.064 114.07C154.348 112.089 156.389 110.044 158.374 107.918C160.137 111.038 161.9 114.157 163.663 117.277C164.62 118.973 167.692 118.046 167.011 116.031C165.396 111.256 163.78 106.481 162.165 101.706C161.373 99.3651 158.811 98.4114 156.812 100.047C153.37 102.871 150.449 105.755 147.501 109.09C144.676 112.29 148.713 116.981 152.064 114.07ZM125.68 105.903C127.96 103.922 130.005 101.877 131.99 99.7513C133.753 102.871 135.516 105.991 137.279 109.11C138.239 110.806 141.308 109.879 140.627 107.864C139.011 103.089 137.396 98.314 135.781 93.5389C134.989 91.1984 132.426 90.2447 130.428 91.8834C126.986 94.7075 124.065 97.5921 121.117 100.927C118.292 104.123 122.329 108.811 125.68 105.903ZM99.2961 97.7365C101.576 95.7552 103.621 93.7102 105.606 91.5845C107.369 94.7042 109.132 97.8238 110.895 100.943C111.855 102.639 114.924 101.712 114.243 99.6975C112.627 94.9224 111.012 90.1473 109.397 85.3722C108.605 83.0316 106.042 82.0779 104.044 83.7167C100.602 86.5408 97.6807 89.4253 94.7357 92.7598C91.9083 95.9533 95.9447 100.645 99.2961 97.7365ZM72.912 89.5664C75.1921 87.5851 77.237 85.5401 79.2216 83.4144C80.9846 86.534 82.7476 89.6537 84.5106 92.7733C85.4676 94.4691 88.5402 93.5423 87.8586 91.5274C86.2433 86.7523 84.6282 81.9772 83.0129 77.2021C82.2204 74.8615 79.6583 73.9078 77.6602 75.5466C74.2183 78.3673 71.2967 81.2552 68.3517 84.5897C65.5242 87.7866 69.5607 92.4778 72.912 89.5664ZM46.5279 81.3996C48.808 79.4184 50.853 77.3733 52.8376 75.2477C54.6005 78.3673 56.3636 81.4869 58.1232 84.6065C59.0803 86.3057 62.1529 85.3755 61.4712 83.3607C59.856 78.5856 58.2406 73.8104 56.6254 69.0353C55.8329 66.6948 53.2707 65.7377 51.2727 67.3798C47.8307 70.2006 44.9094 73.0885 41.961 76.423C39.1403 79.6199 43.1766 84.311 46.5279 81.3996ZM259.854 119.799C262.802 116.464 265.724 113.576 269.166 110.756C271.164 109.117 273.726 110.071 274.518 112.411C276.134 117.186 277.749 121.961 279.364 126.736C280.046 128.751 276.973 129.681 276.016 127.982C274.253 124.863 272.49 121.743 270.731 118.623C268.746 120.749 266.701 122.794 264.421 124.775C261.063 127.687 257.026 122.996 259.854 119.799ZM238.03 116.612C240.31 114.631 242.355 112.586 244.34 110.46C246.103 113.58 247.866 116.699 249.625 119.819C250.586 121.518 253.655 120.588 252.973 118.573C251.358 113.798 249.743 109.023 248.128 104.248C247.335 101.907 244.773 100.953 242.775 102.592C239.333 105.416 236.411 108.301 233.463 111.635C230.642 114.829 234.679 119.52 238.03 116.612ZM211.646 108.442C213.926 106.461 215.971 104.416 217.956 102.29C219.719 105.41 221.481 108.529 223.241 111.649C224.201 113.348 227.271 112.418 226.589 110.403C224.974 105.628 223.359 100.853 221.743 96.0776C220.951 93.737 218.389 92.7833 216.391 94.4221C212.949 97.2462 210.027 100.131 207.079 103.465C204.262 106.662 208.294 111.353 211.646 108.442ZM185.262 100.275C187.542 98.2939 189.584 96.2488 191.572 94.1232C193.335 97.2428 195.098 100.362 196.86 103.482C197.821 105.181 200.89 104.251 200.208 102.236C198.593 97.4611 196.978 92.686 195.363 87.9108C194.57 85.5703 192.008 84.6132 190.01 86.2553C186.568 89.0761 183.647 91.964 180.702 95.2985C177.874 98.492 181.91 103.183 185.262 100.275ZM158.878 92.105C161.158 90.1238 163.203 88.0787 165.187 85.9531C166.95 89.0727 168.71 92.1923 170.476 95.3119C171.433 97.0111 174.506 96.081 173.824 94.0661C172.209 89.291 170.594 84.5159 168.979 79.7407C168.186 77.4002 165.624 76.4465 163.626 78.0819C160.184 80.906 157.263 83.7905 154.318 87.1251C151.49 90.3253 155.526 95.0164 158.878 92.105ZM132.494 83.9383C134.774 81.957 136.819 79.912 138.803 77.7864C140.566 80.906 142.329 84.0256 144.092 87.1452C145.053 88.8444 148.122 87.9142 147.44 85.8994C145.825 81.1243 144.21 76.3491 142.595 71.574C141.802 69.2334 139.24 68.2798 137.242 69.9151C133.8 72.7392 130.878 75.6238 127.93 78.9583C125.106 82.1585 129.142 86.8497 132.494 83.9383ZM106.109 75.7715C108.39 73.7903 110.435 71.7453 112.419 69.6196C114.182 72.7392 115.945 75.8588 117.708 78.9785C118.665 80.6776 121.738 79.7475 121.056 77.7326C119.441 72.9575 117.826 68.1824 116.21 63.4073C115.418 61.0667 112.856 60.113 110.858 61.7517C107.416 64.5725 104.494 67.4604 101.549 70.7949C98.7219 73.9918 102.758 78.683 106.109 75.7715ZM79.7254 67.6048C82.0089 65.6236 84.0507 63.5785 86.0353 61.4529C87.7982 64.5725 89.561 67.6921 91.324 70.8117C92.281 72.5109 95.3537 71.5807 94.672 69.5659C93.0568 64.7908 91.4416 60.0156 89.8264 55.2405C89.0339 52.9 86.4717 51.9463 84.4737 53.585C81.0317 56.4091 78.1103 59.2937 75.1653 62.6282C72.3378 65.8217 76.3741 70.5129 79.7254 67.6048ZM53.3413 59.4347C55.6214 57.4534 57.6664 55.4118 59.651 53.2828C61.4139 56.4024 63.177 59.522 64.9399 62.6416C65.9003 64.3408 68.9696 63.4106 68.2879 61.3958C66.6727 56.6207 65.0575 51.8455 63.4423 47.0704C62.6498 44.7299 60.0876 43.7762 58.0896 45.4149C54.6476 48.239 51.726 51.1236 48.781 54.4581C45.9536 57.6549 49.99 62.3461 53.3413 59.4347ZM266.667 97.8372C269.616 94.5027 272.537 91.6148 275.976 88.794C277.974 87.1553 280.539 88.109 281.329 90.4495C282.944 95.2246 284.559 99.9998 286.174 104.775C286.856 106.79 283.783 107.72 282.826 106.021C281.063 102.901 279.304 99.7815 277.541 96.6619C275.556 98.7875 273.514 100.833 271.231 102.814C267.876 105.725 263.84 101.034 266.667 97.8372ZM244.847 94.6471C247.127 92.6658 249.172 90.6208 251.157 88.4951C252.92 91.6148 254.679 94.7344 256.445 97.854C257.402 99.5498 260.475 98.623 259.793 96.6082C258.178 91.833 256.563 87.0579 254.948 82.2828C254.155 79.9422 251.593 78.9885 249.595 80.6273C246.153 83.4514 243.232 86.3359 240.287 89.6705C237.456 92.8639 241.492 97.5551 244.847 94.6471ZM218.463 86.4803C220.743 84.4991 222.788 82.454 224.772 80.3284C226.535 83.448 228.298 86.5676 230.061 89.6872C231.022 91.3864 234.091 90.4562 233.409 88.4414C231.794 83.6663 230.179 78.8912 228.564 74.116C227.771 71.7755 225.209 70.8218 223.211 72.4605C219.769 75.2846 216.847 78.1692 213.902 81.5037C211.075 84.6972 215.108 89.3884 218.463 86.4803ZM192.075 78.3102C194.355 76.329 196.4 74.2839 198.385 72.1583C200.148 75.2779 201.911 78.3975 203.67 81.5171C204.631 83.2163 207.7 82.2861 207.018 80.2713C205.403 75.4962 203.788 70.7211 202.173 65.9459C201.38 63.6054 198.818 62.6517 196.82 64.2904C193.378 67.1112 190.457 69.9991 187.508 73.3336C184.691 76.5305 188.724 81.2216 192.075 78.3102ZM165.695 70.1435C167.975 68.1622 170.02 66.1172 172.004 63.9916C173.767 67.1112 175.53 70.2308 177.293 73.3504C178.254 75.0496 181.323 74.1194 180.641 72.1046C179.026 67.3294 177.411 62.5543 175.796 57.7792C175.003 55.4386 172.441 54.4816 170.443 56.1203C167.001 58.9444 164.079 61.829 161.131 65.1635C158.307 68.3637 162.34 73.0515 165.695 70.1435ZM139.31 61.9767C141.591 59.9955 143.636 57.9504 145.62 55.8248C147.383 58.9444 149.146 62.064 150.909 65.1837C151.866 66.8828 154.939 65.9526 154.257 63.9378C152.642 59.1627 151.027 54.3876 149.411 49.6124C148.619 47.2719 146.057 46.3182 144.059 47.9536C140.617 50.7777 137.695 53.6622 134.75 56.9968C131.923 60.197 135.956 64.8848 139.31 61.9767ZM112.923 53.81C115.206 51.8287 117.248 49.7837 119.233 47.6581C120.996 50.7777 122.759 53.8973 124.522 57.0169C125.479 58.7127 128.551 57.7859 127.869 55.7711C126.254 50.9959 124.639 46.2208 123.024 41.4457C122.231 39.1051 119.669 38.1515 117.671 39.7902C114.229 42.6143 111.308 45.4989 108.363 48.8334C105.539 52.0269 109.572 56.718 112.923 53.81ZM86.5388 45.6399C88.8223 43.6586 90.8641 41.6136 92.8487 39.488C94.6117 42.6076 96.3745 45.7272 98.1374 48.8468C99.0978 50.5426 102.167 49.6158 101.485 47.601C99.8702 42.8259 98.255 38.0507 96.6398 33.2756C95.8473 30.9351 93.2851 29.9814 91.2871 31.6201C87.8451 34.4442 84.9236 37.3287 81.9752 40.6633C79.1545 43.8601 83.1875 48.5513 86.5388 45.6399ZM60.1548 37.4731C62.4349 35.4919 64.48 33.4469 66.4646 31.3212C68.2276 34.4408 69.9904 37.5605 71.7534 40.6801C72.7104 42.3759 75.783 41.4491 75.1013 39.4342C73.4861 34.6591 71.8709 29.884 70.2557 25.1088C69.4632 22.7683 66.9011 21.8146 64.903 23.4533C61.461 26.2774 58.5396 29.162 55.5947 32.4965C52.7705 35.6934 56.8034 40.3812 60.1548 37.4731ZM273.481 75.8723C276.429 72.5378 279.351 69.6498 282.793 66.8291C284.791 65.1904 287.353 66.1441 288.145 68.488C289.76 73.2631 291.376 78.0382 292.991 82.8133C293.673 84.8282 290.6 85.755 289.643 84.0592C287.88 80.9396 286.117 77.8199 284.357 74.7003C282.373 76.826 280.328 78.871 278.048 80.8523C274.69 83.7603 270.657 79.0691 273.481 75.8723ZM251.66 72.6821C253.94 70.7009 255.982 68.6559 257.97 66.5302C259.733 69.6498 261.496 72.7695 263.256 75.8891C264.216 77.5882 267.285 76.6581 266.604 74.6432C264.988 69.8681 263.373 65.093 261.758 60.3179C260.965 57.9773 258.403 57.0236 256.405 58.6623C252.963 61.4831 250.042 64.371 247.097 67.7055C244.272 70.9024 248.306 75.5936 251.66 72.6821ZM225.276 64.5154C227.556 62.5342 229.601 60.4891 231.586 58.3635C233.349 61.4831 235.108 64.6027 236.875 67.7223C237.832 69.4181 240.904 68.4913 240.223 66.4765C238.607 61.7014 236.992 56.9262 235.381 52.1511C234.588 49.8106 232.026 48.8569 230.028 50.4956C226.586 53.3197 223.664 56.2043 220.716 59.5388C217.889 62.7356 221.921 67.4268 225.276 64.5154ZM198.892 56.3487C201.172 54.3674 203.217 52.3224 205.202 50.1967C206.965 53.3164 208.728 56.436 210.491 59.5556C211.451 61.2514 214.52 60.3246 213.839 58.3098C212.223 53.5346 210.608 48.7595 208.993 43.9844C208.201 41.6438 205.638 40.6901 203.64 42.3289C200.198 45.153 197.277 48.0375 194.328 51.3721C191.504 54.5656 195.537 59.2567 198.892 56.3487ZM172.508 48.1786C174.788 46.1973 176.833 44.1523 178.818 42.0266C180.581 45.1463 182.344 48.2659 184.107 51.3855C185.067 53.0847 188.136 52.1545 187.455 50.1397C185.839 45.3645 184.224 40.5894 182.609 35.8143C181.816 33.4737 179.251 32.52 177.256 34.1588C173.814 36.9795 170.893 39.8674 167.948 43.202C165.12 46.3988 169.153 51.09 172.508 48.1786ZM146.124 40.0118C148.404 38.0306 150.449 35.9855 152.434 33.8599C154.197 36.9795 155.96 40.0991 157.722 43.2187C158.683 44.9179 161.752 43.9877 161.07 41.9729C159.455 37.1978 157.84 32.4227 156.225 27.6475C155.432 25.307 152.87 24.3533 150.872 25.9887C147.43 28.8128 144.509 31.6973 141.564 35.0319C138.736 38.2321 142.769 42.9232 146.124 40.0118ZM119.74 31.8451C122.02 29.8638 124.065 27.8188 126.049 25.6931C127.812 28.8128 129.575 31.9324 131.338 35.052C132.295 36.7478 135.368 35.821 134.686 33.8062C133.071 29.031 131.456 24.2559 129.841 19.4808C129.048 17.1402 126.483 16.1866 124.488 17.8219C121.046 20.646 118.124 23.5306 115.18 26.8651C112.352 30.0653 116.385 34.7531 119.74 31.8451ZM93.3558 23.6783C95.6359 21.6971 97.6808 19.652 99.6654 17.5264C101.428 20.646 103.188 23.7656 104.954 26.8852C105.911 28.5844 108.984 27.6542 108.302 25.6394C106.687 20.8643 105.072 16.0892 103.457 11.314C102.664 8.97349 100.102 8.01981 98.104 9.65517C94.662 12.4793 91.7405 15.3638 88.7922 18.6984C85.968 21.8952 90.0011 26.5864 93.3558 23.6783ZM66.9717 15.5116C69.2518 13.5303 71.2967 11.4853 73.2813 9.35966C75.0443 12.4793 76.8073 15.5989 78.5703 18.7185C79.5307 20.4177 82.5999 19.4875 81.9183 17.4727C80.303 12.6976 78.6879 7.92243 77.0726 3.1473C76.2801 0.806748 73.718 -0.146934 71.7199 1.49179C68.278 4.3159 65.3564 7.20044 62.4081 10.535C59.584 13.7285 63.617 18.4196 66.9717 15.5116Z" fill="#FFB71A"/>
</svg>
