<svg width="166" height="166" viewBox="0 0 166 166" fill="none" xmlns="http://www.w3.org/2000/svg">
<path d="M159.526 66.2235C174.487 55.4184 158.526 48.1622 147.499 47.4469C136.01 46.7046 123.29 49.8144 112.281 47.9585C111.394 39.6747 135.997 10.3783 122.666 5.05041C116.437 2.56075 103.862 13.4202 99.9781 17.2633C94.4555 22.7224 92.1605 32.939 85.443 36.6781C78.807 29.7251 71.3154 -5.96291 55.1824 1.49699C46.1699 5.66603 48.2929 40.8878 52.7425 42.5672L54.3721 43.382C46.7039 43.382 38.5695 44.1832 30.9512 43.4001C25.0349 42.7936 12.1204 38.4072 7.53042 43.7849C-2.85823 55.9616 30.5393 77.3545 36.854 83.0399C32.8117 89.7031 -14.9309 108.448 4.72834 115.048C10.8438 117.103 21.7169 114.903 27.8369 114.26C35.9577 113.409 45.853 106.497 53.4577 107.76C54.9515 123.639 43.2999 139.288 41.5073 155.484C40.9596 160.418 45.9706 163.954 50.4248 161.767C60.1571 156.992 67.5627 141.502 72.2432 134.702C77.5394 127.012 79.8842 128.356 84.4923 135.169C88.9963 141.827 93.1201 148.495 97.9545 154.959C101.073 159.133 104.066 166.62 110.76 164.728C116.002 163.243 117.541 154.04 117.904 149.31C118.474 141.873 111.946 123.716 119.117 119.095C126.504 114.333 144.502 123.427 152.229 123.789C169.213 124.59 159.947 110.399 154.488 102.613C150.301 96.638 146.847 92.985 140.654 88.9562C135.68 85.7242 128.039 84.0494 132.099 77.961C136.553 71.2752 152.795 71.0896 159.526 66.2235Z" fill="#FB719A"/>
<path d="M103.039 68.9395C96.5973 62.1269 85.7786 59.3113 76.8521 63.0051C67.6992 66.7893 64.9425 72.9727 66.1194 80.1746C65.703 82.0351 65.5219 83.9725 65.6305 85.9099C66.4317 100.78 84.6741 108.616 96.9413 101.472C107.135 95.5335 111.68 78.0788 103.039 68.9395Z" fill="#5BCACE"/>
</svg>
