<svg width="111" height="97" viewBox="0 0 111 97" fill="none" xmlns="http://www.w3.org/2000/svg">
<g clip-path="url(#clip0_71_1112)">
<rect x="33" y="12" width="45" height="45" rx="12" fill="white"/>
<rect x="33" y="12" width="45" height="45" fill="white"/>
<path d="M41.3561 44.61C42.8176 52.1157 50.7017 53.8607 54.1418 52.9183C51.857 52.4712 50.0962 40.666 41.3561 44.61Z" fill="#5BCACE"/>
<path d="M71.4629 43.3515C70.3219 52.3954 60.89 55.1657 56.6305 54.3509C59.3688 53.6176 60.5097 39.4405 71.4629 43.3515Z" fill="#5BCACE"/>
<path d="M67.0196 65.1548C49.6353 67.1346 50.6797 47.8316 53.3749 37.9326H56.9124C55.6996 58.3905 63.1452 60.4803 67.0196 58.968V65.1548Z" fill="#0BA857"/>
<path d="M41.6824 26.6073C42.9188 22.5071 47.5993 21.3737 50.6318 23.9859C53.6642 26.5981 54.6185 28.3593 53.6935 30.3798C52.7685 32.4004 49.8151 32.8381 47.311 32.7471C45.0344 32.6643 40.6428 30.0552 41.6824 26.6073Z" fill="#FFC954"/>
<path d="M48.1261 42.3738C44.4654 40.1512 44.5388 35.336 47.8264 33.0532C51.114 30.7705 53.0579 30.287 54.7829 31.688C56.5079 33.089 56.193 36.058 55.4785 38.4598C54.829 40.6433 51.2044 44.2428 48.1261 42.3738Z" fill="#FFC954"/>
<path d="M63.555 41.8406C59.8726 44.0271 55.6569 41.699 55.1873 37.7242C54.7177 33.7495 55.2046 31.8065 57.252 30.9424C59.2994 30.0783 61.772 31.7518 63.5561 33.5113C65.1781 35.1109 66.6515 40.0021 63.555 41.8406Z" fill="#FFC954"/>
<path d="M68.5124 25.3259C69.9632 29.3553 66.8802 33.0549 62.8883 32.7646C58.8965 32.4743 57.0805 31.6288 56.6191 29.455C56.1576 27.2812 58.2684 25.1696 60.3335 23.7502C62.2108 22.4599 67.2923 21.9377 68.5124 25.3259Z" fill="#FFC954"/>
<path d="M53.8972 16.0715C58.1624 15.6849 60.9637 19.6022 59.675 23.3914C58.3862 27.1807 57.1097 28.7243 54.8898 28.6219C52.6699 28.5196 51.1595 25.9441 50.3076 23.5876C49.5331 21.4452 50.3108 16.3965 53.8972 16.0715Z" fill="#FFC954"/>
<rect x="51.9961" y="27.7952" width="6.16028" height="5.78693" rx="2.89347" fill="#F54279"/>
</g>
<path d="M13.5 84.312V77.256C13.5 76.2 13.74 75.264 14.22 74.448C14.7 73.616 15.38 72.968 16.26 72.504C17.14 72.024 18.172 71.784 19.356 71.784C20.54 71.784 21.564 72.024 22.428 72.504C23.308 72.968 23.988 73.616 24.468 74.448C24.948 75.264 25.188 76.2 25.188 77.256V84.312H22.452V77.28C22.452 76.656 22.308 76.112 22.02 75.648C21.732 75.168 21.348 74.8 20.868 74.544C20.404 74.272 19.892 74.136 19.332 74.136C18.788 74.136 18.276 74.272 17.796 74.544C17.332 74.8 16.956 75.168 16.668 75.648C16.396 76.112 16.26 76.656 16.26 77.28V84.312H13.5Z" fill="#0BA857"/>
<path d="M34.356 84.6C33.172 84.6 32.14 84.368 31.26 83.904C30.38 83.424 29.7 82.768 29.22 81.936C28.74 81.104 28.5 80.168 28.5 79.128V72.072H31.26V79.104C31.26 79.728 31.396 80.28 31.668 80.76C31.956 81.224 32.332 81.592 32.796 81.864C33.276 82.12 33.796 82.248 34.356 82.248C34.916 82.248 35.428 82.12 35.892 81.864C36.372 81.592 36.748 81.224 37.02 80.76C37.308 80.28 37.452 79.728 37.452 79.104V72.072H40.212V79.128C40.212 80.168 39.972 81.104 39.492 81.936C39.012 82.768 38.332 83.424 37.452 83.904C36.572 84.368 35.54 84.6 34.356 84.6Z" fill="#0BA857"/>
<path d="M43.4274 84.312V75.552C43.4274 74.464 43.7314 73.616 44.3394 73.008C44.9634 72.384 45.8194 72.072 46.9074 72.072H49.8594V74.424H47.4114C47.0274 74.424 46.7234 74.536 46.4994 74.76C46.2914 74.984 46.1874 75.288 46.1874 75.672V84.312H43.4274Z" fill="#0BA857"/>
<path d="M56.4662 84.312C55.3782 84.312 54.5222 84 53.8982 83.376C53.2902 82.752 52.9862 81.904 52.9862 80.832V69H55.7222V80.712C55.7222 81.08 55.8342 81.384 56.0582 81.624C56.2822 81.848 56.5782 81.96 56.9462 81.96H59.5142V84.312H56.4662ZM50.8742 74.424V72.072H59.5382V74.424H50.8742Z" fill="#FFB71A"/>
<path d="M67.9888 84.6C66.8048 84.6 65.7728 84.368 64.8928 83.904C64.0128 83.424 63.3328 82.768 62.8528 81.936C62.3728 81.104 62.1328 80.168 62.1328 79.128V72.072H64.8928V79.104C64.8928 79.728 65.0288 80.28 65.3008 80.76C65.5888 81.224 65.9648 81.592 66.4288 81.864C66.9088 82.12 67.4288 82.248 67.9888 82.248C68.5488 82.248 69.0608 82.12 69.5248 81.864C70.0048 81.592 70.3808 81.224 70.6528 80.76C70.9408 80.28 71.0848 79.728 71.0848 79.104V72.072H73.8448V79.128C73.8448 80.168 73.6048 81.104 73.1248 81.936C72.6448 82.768 71.9648 83.424 71.0848 83.904C70.2048 84.368 69.1728 84.6 67.9888 84.6Z" fill="#FFB71A"/>
<path d="M77.0602 84.312V75.552C77.0602 74.464 77.3643 73.616 77.9723 73.008C78.5963 72.384 79.4523 72.072 80.5403 72.072H83.4922V74.424H81.0443C80.6602 74.424 80.3562 74.536 80.1322 74.76C79.9242 74.984 79.8203 75.288 79.8203 75.672V84.312H77.0602Z" fill="#F54279"/>
<path d="M90.3743 84.6C89.2063 84.6 88.1982 84.312 87.3503 83.736C86.5023 83.16 85.8462 82.392 85.3822 81.432C84.9342 80.456 84.7103 79.384 84.7103 78.216C84.7103 77 84.9662 75.912 85.4782 74.952C86.0062 73.976 86.7503 73.208 87.7103 72.648C88.6862 72.072 89.8462 71.784 91.1902 71.784C92.5182 71.784 93.6462 72.072 94.5742 72.648C95.5182 73.208 96.2383 73.976 96.7343 74.952C97.2463 75.912 97.5023 76.984 97.5023 78.168V84.312H94.7422V82.032H94.6943C94.4543 82.48 94.1423 82.904 93.7582 83.304C93.3742 83.688 92.9022 84 92.3422 84.24C91.7822 84.48 91.1263 84.6 90.3743 84.6ZM91.1182 82.248C91.8382 82.248 92.4622 82.072 92.9902 81.72C93.5342 81.352 93.9502 80.864 94.2383 80.256C94.5423 79.632 94.6943 78.936 94.6943 78.168C94.6943 77.4 94.5503 76.72 94.2623 76.128C93.9743 75.52 93.5663 75.04 93.0383 74.688C92.5103 74.32 91.8783 74.136 91.1423 74.136C90.3743 74.136 89.7182 74.32 89.1742 74.688C88.6302 75.04 88.2142 75.52 87.9262 76.128C87.6382 76.736 87.4942 77.424 87.4942 78.192C87.4942 78.944 87.6382 79.632 87.9262 80.256C88.2142 80.864 88.6223 81.352 89.1503 81.72C89.6943 82.072 90.3503 82.248 91.1182 82.248Z" fill="#F54279"/>
<defs>
<clipPath id="clip0_71_1112">
<rect x="33" y="12" width="45" height="45" rx="12" fill="white"/>
</clipPath>
</defs>
</svg>
