<svg width="303" height="302" viewBox="0 0 303 302" fill="none" xmlns="http://www.w3.org/2000/svg">
<g clip-path="url(#clip0_98_9762)">
<path d="M56.2654 218.848C66.106 269.22 119.192 280.931 142.356 274.607C126.971 271.606 115.116 192.38 56.2654 218.848Z" fill="#5BCACE"/>
<path d="M258.988 210.404C251.306 271.099 187.798 289.69 159.117 284.222C177.555 279.301 185.237 184.157 258.988 210.404Z" fill="#5BCACE"/>
<path d="M229.065 356.727C112.011 370.014 119.043 240.469 137.191 174.036H161.01C152.843 311.331 202.977 325.356 229.065 315.206V356.727Z" fill="#0BA857"/>
<path d="M58.4627 98.031C66.7874 70.5135 98.3032 62.9077 118.722 80.4383C139.14 97.9689 145.566 109.788 139.338 123.349C133.109 136.909 113.223 139.847 96.3615 139.236C81.0329 138.68 51.4625 121.17 58.4627 98.031Z" fill="#FFC954"/>
<path d="M101.865 203.841C77.2156 188.925 77.7096 156.609 99.8462 141.29C121.983 125.97 135.071 122.725 146.687 132.127C158.302 141.53 156.181 161.455 151.371 177.574C146.997 192.227 122.591 216.384 101.865 203.841Z" fill="#FFC954"/>
<path d="M205.751 200.264C180.956 214.938 152.57 199.314 149.408 172.639C146.246 145.964 149.525 132.924 163.31 127.125C177.096 121.326 193.745 132.557 205.758 144.366C216.679 155.101 226.6 187.926 205.751 200.264Z" fill="#FFC954"/>
<path d="M239.122 89.4333C248.891 116.475 228.132 141.303 201.253 139.355C174.375 137.407 162.148 131.733 159.04 117.144C155.933 102.555 170.145 88.3837 184.051 78.8584C196.692 70.199 230.907 66.6947 239.122 89.4333Z" fill="#FFC954"/>
<path d="M140.72 27.3231C169.438 24.7288 188.301 51.0178 179.623 76.4478C170.946 101.878 162.35 112.237 147.403 111.55C132.455 110.864 122.286 93.5794 116.549 77.7643C111.334 63.3869 116.571 29.5046 140.72 27.3231Z" fill="#FFC954"/>
<rect x="127.928" y="106.003" width="41.4792" height="38.8367" rx="19.4184" fill="#F54279"/>
</g>
<defs>
<clipPath id="clip0_98_9762">
<rect width="303" height="302" rx="24" fill="white"/>
</clipPath>
</defs>
</svg>
