<svg width="73" height="72" viewBox="0 0 73 72" fill="none" xmlns="http://www.w3.org/2000/svg">
<path d="M61.0421 8.14727C63.1663 10.5824 65.2906 13.0176 67.4127 15.4528C74.1672 23.1953 74.4006 35.984 66.8783 48.3667C56.7371 65.0599 36.3464 74.6899 21.326 69.8749C17.4492 68.6325 14.3115 66.548 11.9604 63.8539C9.83616 61.4199 7.71411 58.9847 5.58984 56.5496C7.93871 59.2436 11.0787 61.327 14.9532 62.5694C29.9736 67.3856 50.3665 57.7544 60.5055 41.0624C68.03 28.6785 67.7944 15.8909 61.0421 8.14727Z" fill="#156FE8"/>
<path d="M51.6744 2.12631C66.6947 6.94243 70.6468 24.3692 60.5056 41.0613C50.3666 57.7545 29.9737 67.3845 14.9533 62.5684C-0.0625726 57.7523 -4.01903 40.3145 6.11992 23.6224C16.2611 6.93027 36.6541 -2.6898 51.6744 2.12631ZM18.4694 56.7842C30.6143 60.6775 47.1105 52.8897 55.3089 39.395C63.5072 25.8993 60.3075 11.7962 48.1649 7.90167C36.0201 4.00828 19.5238 11.7962 11.3255 25.2908C3.12712 38.7887 6.32791 52.8908 18.4694 56.7842Z" fill="#2181FF"/>
<path opacity="0.6" d="M60.5048 41.0612C50.3659 57.7544 29.9729 67.3844 14.9525 62.5683C12.6833 61.8414 10.6763 60.818 8.92383 59.5601C10.8257 61.0526 13.0595 62.2497 15.623 63.0717C30.6433 67.8878 51.0363 58.2556 61.1753 41.5646C68.0769 30.2042 68.4442 18.5086 63.2453 10.6743C62.5107 9.83119 61.776 8.99034 61.0414 8.14727C67.7937 15.8909 68.0294 28.6785 60.5048 41.0612Z" fill="white"/>
<path d="M48.1648 7.90281C60.3074 11.7973 63.5071 25.9004 55.3087 39.3962C47.1104 52.8908 30.6141 60.6776 18.4693 56.7853C6.32665 52.8908 3.12697 38.7888 11.3253 25.2919C19.5237 11.7962 36.0199 4.00943 48.1648 7.90281Z" fill="white"/>
<path d="M13.4224 26.9681C21.6185 13.4734 38.1169 5.68554 50.2596 9.57892C51.9302 10.1133 53.425 10.848 54.7504 11.743C52.9868 10.0602 50.7851 8.7425 48.1663 7.90164C36.0214 4.00826 19.5252 11.7961 11.3268 25.2908C4.25591 36.9311 5.66988 49.0151 13.98 54.6201C7.57509 48.5061 6.99313 37.5507 13.4224 26.9681Z" fill="#C4C4C4"/>
<path d="M46.0824 11.3304L24.0996 29.3866L31.1252 28.5159L46.0824 11.3304Z" fill="#D61C1C"/>
<path d="M24.0987 29.3867L20.5527 53.3566L31.1243 28.5159L24.0987 29.3867Z" fill="#156FE8"/>
<path d="M31.125 28.5159L42.5363 35.2992L46.0823 11.3304L31.125 28.5159Z" fill="#FF3B3B"/>
<path d="M20.5527 53.3566L42.5356 35.2992L31.1243 28.5159L20.5527 53.3566Z" fill="#2181FF"/>
</svg>
