<svg width="54" height="77" viewBox="0 0 54 77" fill="none" xmlns="http://www.w3.org/2000/svg">
<path d="M19.9793 25.7673L26.9503 31.6913L13.7933 29.0243L6.82031 23.0993L19.9793 25.7673Z" fill="#FF7B00"/>
<path d="M22.6555 16.9133L29.6285 22.8383L26.9515 31.6913L19.9805 25.7673L22.6555 16.9133Z" fill="#FFAA00"/>
<path d="M31.3333 18.6733L38.3053 24.5993L29.6273 22.8383L22.6543 16.9133L31.3333 18.6733Z" fill="#FF7B00"/>
<path d="M18.6505 52.2493L25.6235 58.1733L11.9545 55.4013L4.98047 49.4763L18.6505 52.2493Z" fill="#FF7B00"/>
<path d="M21.1034 44.1333L28.0754 50.0583L25.6234 58.1733L18.6504 52.2493L21.1034 44.1333Z" fill="#FFAA00"/>
<path opacity="0.5" d="M21.1034 44.1333L28.0754 50.0583L25.6234 58.1733L18.6504 52.2493L21.1034 44.1333Z" fill="#FF7B00"/>
<path d="M45.1105 9.93732C46.9245 12.3723 47.1405 15.9183 45.7575 20.4943L41.2255 35.4923C38.9565 43.0003 33.5575 46.6593 26.7725 45.2833L21.1025 44.1343L18.6505 52.2503L4.98047 49.4773L8.21547 38.7743C9.31447 35.1363 11.1625 32.5613 13.7105 31.0953C16.1055 29.7363 19.0285 29.3943 22.4155 30.0803L27.5685 31.1253L31.3325 18.6743L22.6535 16.9143L19.9785 25.7683L6.81947 23.1003L13.5505 0.826294L37.3325 5.64832C40.9135 6.37232 43.5315 7.81432 45.1105 9.93732Z" fill="#FFD321"/>
<path d="M52.0806 15.8613C51.9496 15.6833 51.8096 15.5103 51.6626 15.3423C51.6236 15.2963 51.5776 15.2553 51.5366 15.2113C51.4526 15.1183 51.3636 15.0283 51.2736 14.9383C51.2016 14.8653 51.1356 14.7883 51.0606 14.7163C50.9446 14.6063 50.8256 14.4993 50.7016 14.3943L43.7286 8.4693C43.9346 8.6443 44.1216 8.83131 44.3076 9.01831C44.3926 9.10631 44.4786 9.19131 44.5596 9.28131C44.7526 9.49331 44.9406 9.7083 45.1096 9.9353C46.9236 12.3703 47.1396 15.9163 45.7566 20.4923L41.2246 35.4903C38.9556 42.9983 33.5566 46.6573 26.7716 45.2813L21.1016 44.1323L28.0746 50.0573L33.7446 51.2063C40.5296 52.5823 45.9296 48.9243 48.1976 41.4153L52.7296 26.4173C54.1126 21.8433 53.8966 18.2963 52.0806 15.8613Z" fill="#FFAA00"/>
<path d="M13.9055 55.3963L20.8785 61.3213C21.5675 61.9073 22.1405 62.6463 22.5795 63.5263C23.5155 65.3913 23.6645 67.4973 23.0225 69.6193C22.3585 71.8153 20.9715 73.6173 19.0165 74.8373C17.1025 76.0223 15.0175 76.4323 12.9715 76.0173C11.7645 75.7733 10.7045 75.2643 9.82846 74.5223L2.85547 68.5963C3.73147 69.3393 4.79147 69.8483 6.00047 70.0933C8.04547 70.5073 10.1305 70.0973 12.0425 68.9123C13.9995 67.6923 15.3865 65.8913 16.0495 63.6943C16.6915 61.5713 16.5415 59.4673 15.6065 57.6023C15.1675 56.7203 14.5945 55.9833 13.9055 55.3963Z" fill="#FFAA00"/>
<path d="M10.8766 53.9553C12.9916 54.3833 14.6286 55.6423 15.6066 57.6013C16.5426 59.4653 16.6916 61.5703 16.0496 63.6933C15.3866 65.8893 13.9996 67.6913 12.0426 68.9113C10.1306 70.0963 8.0456 70.5063 6.0006 70.0923C3.9616 69.6783 2.34459 68.5173 1.32859 66.7383C0.291586 64.9123 0.0915962 62.7893 0.754596 60.5923C1.3976 58.4693 2.73458 56.6663 4.62358 55.3743C6.60058 54.0143 8.76259 53.5263 10.8766 53.9553Z" fill="#FFD321"/>
<path d="M45.1096 9.93732C46.9236 12.3723 47.1396 15.9183 45.7566 20.4943L41.2246 35.4923C38.9556 43.0003 33.5566 46.6593 26.7716 45.2833L21.1016 44.1343L18.6496 52.2503L4.9796 49.4773L8.2146 38.7743C9.3136 35.1363 11.1616 32.5613 13.7096 31.0953C16.1046 29.7363 19.0276 29.3943 22.4146 30.0803L27.5676 31.1253L31.3316 18.6743L22.6526 16.9143L19.9776 25.7683L6.8186 23.1003L13.5496 0.826294L37.3316 5.64832C40.9126 6.37232 43.5306 7.81432 45.1096 9.93732ZM4.62359 55.3743C2.73459 56.6663 1.39659 58.4693 0.754591 60.5923C0.0915911 62.7883 0.291596 64.9113 1.3286 66.7383C2.3446 68.5173 3.96159 69.6783 6.00059 70.0923C8.04559 70.5063 10.1306 70.0963 12.0426 68.9113C13.9996 67.6913 15.3866 65.8903 16.0496 63.6933C16.6916 61.5703 16.5416 59.4663 15.6066 57.6013C14.6276 55.6413 12.9916 54.3823 10.8766 53.9553C8.7616 53.5263 6.59959 54.0143 4.62359 55.3743Z" fill="#FFD321"/>
<path d="M22.6543 16.9132L30.7863 18.5632L30.8883 18.2282L22.2093 16.4692L19.5343 25.3212L6.92131 22.7643L6.82031 23.0992L19.9793 25.7672L22.6543 16.9132Z" fill="#FFFB21"/>
<path d="M45.1105 9.93729C44.8185 9.54429 44.4795 9.18428 44.1165 8.83728C44.3095 9.04928 44.4965 9.26427 44.6655 9.49127C46.4804 11.9263 46.6955 15.4733 45.3135 20.0483L40.7815 35.0473C38.5115 42.5553 33.1125 46.2143 26.3275 44.8373L20.6585 43.6883L18.2055 51.8043L5.08147 49.1413L4.98047 49.4763L18.6505 52.2493L21.1025 44.1333L26.7725 45.2823C33.5575 46.6583 38.9575 42.9993 41.2255 35.4913L45.7575 20.4933C47.1415 15.9183 46.9255 12.3713 45.1105 9.93729Z" fill="#FFFB21"/>
<path d="M14.0453 55.5323C14.4773 56.0053 14.8553 56.5423 15.1613 57.1563C16.0973 59.0203 16.2472 61.1253 15.6042 63.2493C14.9422 65.4443 13.5543 67.2463 11.5973 68.4663C9.68526 69.6513 7.60025 70.0613 5.55525 69.6473C4.28525 69.3893 3.18025 68.8413 2.28125 68.0353C3.25025 69.0853 4.51025 69.7903 6.00125 70.0933C8.04625 70.5073 10.1313 70.0973 12.0433 68.9123C14.0003 67.6923 15.3872 65.8913 16.0502 63.6943C16.6922 61.5713 16.5423 59.4673 15.6073 57.6023C15.1983 56.7843 14.6693 56.0963 14.0453 55.5323Z" fill="#FFFB21"/>
<path opacity="0.4" d="M31.1501 4.39331L13.5511 0.825317L12.4141 4.58731L21.9921 19.1013L22.6531 16.9143L31.3321 18.6743L28.3091 28.6723L37.3371 42.3523C39.0251 40.6723 40.3561 38.3683 41.2241 35.4933L44.5061 24.6333L31.1501 4.39331Z" fill="white"/>
<path opacity="0.4" d="M15.6059 57.6023C14.6269 55.6423 12.9909 54.3834 10.8759 53.9564C8.86687 53.5484 6.81588 53.9783 4.92188 55.1883L13.3389 67.9423C14.6169 66.8093 15.5449 65.3674 16.0499 63.6944C16.6909 61.5704 16.5419 59.4663 15.6059 57.6023Z" fill="white"/>
<path opacity="0.4" d="M10.1535 34.5323C9.36247 35.7313 8.70947 37.1393 8.21547 38.7723L4.98047 49.4753L18.6505 52.2483L19.6545 48.9263L10.1535 34.5323Z" fill="white"/>
</svg>
