<svg width="110" height="84" viewBox="0 0 110 84" fill="none" xmlns="http://www.w3.org/2000/svg">
<path d="M77.9135 9.53307C94.4785 20.5581 97.8485 37.2191 97.6115 49.4601C97.5065 54.9021 95.9495 61.0071 95.1015 64.9781C94.4895 65.0071 93.8775 65.0351 93.2645 65.0691C91.8835 65.1451 90.4985 65.2771 89.1135 65.4301C89.9765 61.6421 90.7915 56.6871 90.8765 51.2431C91.1205 35.5541 85.4725 23.3611 74.0875 15.0011C53.1425 -0.377927 34.7215 9.00908 19.4565 18.8441C19.1295 17.8681 18.7955 16.8961 18.4445 15.9331C18.1125 15.0221 17.7455 14.1381 17.3555 13.2711C33.5075 2.89907 53.0985 -6.98293 77.9135 9.53307Z" fill="#F86E46"/>
<path d="M75.3412 13.6171C90.7012 24.2331 93.2382 40.3611 92.6632 52.0221C92.4182 56.9851 91.6122 61.5431 90.7182 65.2681C88.7612 65.4461 86.8002 65.6951 84.8382 65.9861C85.7502 62.4071 86.6232 57.8261 86.8502 52.8421C87.5302 37.8971 82.3462 26.4991 71.4432 18.9631C52.6312 5.96107 35.3792 13.6151 20.7612 22.8081C20.1792 21.0361 19.5992 19.2631 18.9922 17.5051C34.6282 7.72007 54.2282 -0.974936 75.3412 13.6171Z" fill="#7EF7B8"/>
<path d="M72.5405 17.9641C87.2295 27.4331 89.2275 42.6391 88.3165 53.7281C87.9505 58.1921 87.1045 62.3351 86.1805 65.7911C84.2635 66.0561 82.3445 66.3611 80.4275 66.6831C81.3645 63.3471 82.2645 59.2011 82.6125 54.7361C83.7225 40.5271 78.9985 29.9141 68.5725 23.1911C51.8825 12.4321 35.9745 18.4921 22.1405 26.8501C21.5565 25.2331 21.0145 23.5941 20.4785 21.9521C35.4855 12.8881 53.6705 5.79807 72.5405 17.9641Z" fill="#FD92AF"/>
<path d="M68.3816 23.0501C82.6596 31.8171 84.3266 46.4581 83.2116 57.1971C82.8656 60.5331 82.2406 63.6891 81.5246 66.5041C81.1056 66.5731 80.6876 66.6391 80.2686 66.7091C78.8096 66.9541 77.3476 67.2111 75.8836 67.4681C76.6056 64.7321 77.2456 61.6111 77.5736 58.3201C78.9466 44.5611 74.5046 34.4291 64.3696 28.2051C50.0076 19.3861 35.9896 23.2911 23.3946 30.1561C22.9736 29.1371 22.5916 28.1061 22.2266 27.1051C22.0386 26.5901 21.8636 26.0681 21.6836 25.5481C35.6616 17.8171 51.9026 12.9311 68.3816 23.0501Z" fill="#FFD988"/>
<path d="M105.096 83.7471C106.02 82.9401 109.104 77.2921 109.385 74.2151C109.666 71.1381 108.156 67.8591 105.418 66.4271C102.68 64.9951 99.8155 65.6661 98.2095 68.3061C99.1785 65.7111 100.628 62.3731 100.362 59.1721C100.013 54.9741 97.7855 52.8391 94.7295 51.8511C92.1345 51.0131 88.8275 51.7831 86.7795 53.5841C84.7315 55.3841 83.3815 57.8301 82.1085 60.2411C83.5445 58.0401 82.9085 54.8341 80.9195 53.1171C78.9295 51.4001 75.8915 51.1631 73.5095 52.2731C71.1275 53.3831 69.4145 55.6841 68.6995 58.2131C68.9665 55.1111 65.8445 52.3581 62.7355 52.5231C59.6265 52.6881 56.9715 55.2741 56.1605 58.2801C55.3495 61.2861 55.0965 66.7041 55.7785 68.1091C56.3295 69.2431 101.303 85.5891 105.096 83.7471Z" fill="#B6ECED"/>
<path d="M49.5566 41.5341C50.4876 40.7351 53.6196 35.1131 53.9266 32.0391C54.2336 28.9651 52.7516 25.6731 50.0266 24.2171C47.3006 22.7621 44.4316 23.4091 42.8026 26.0341C43.7936 23.4481 45.2715 20.1211 45.0326 16.9191C44.7196 12.7181 42.5116 10.5641 39.4636 9.55009C36.8765 8.68909 33.5616 9.43208 31.4986 11.2151C29.4356 12.9981 28.0646 15.4321 26.7706 17.8321C28.2246 15.6431 27.6166 12.4321 25.6426 10.6981C23.6676 8.96409 20.6316 8.70208 18.2406 9.79108C15.8496 10.8811 14.1156 13.1671 13.3796 15.6901C13.6736 12.5901 10.5746 9.81109 7.46456 9.94909C4.35356 10.0881 1.67756 12.6511 0.839557 15.6501C0.00255716 18.6491 -0.296446 24.0651 0.373554 25.4751C0.915554 26.6141 45.7476 43.3441 49.5566 41.5341Z" fill="#B6ECED"/>
</svg>
