<svg width="99" height="78" viewBox="0 0 99 78" fill="none" xmlns="http://www.w3.org/2000/svg">
<path d="M42.7985 20.6966C42.7985 20.6966 26.5865 13.1866 19.7755 21.2266C12.9665 29.2676 12.3165 30.7606 13.2575 33.3516C14.4855 36.7496 28.4455 35.3597 28.4455 35.3597L42.7985 20.6966Z" fill="#0BA857"/>
<path d="M61.607 48.0756C61.607 48.0756 64.008 65.7816 54.319 69.9236C44.625 74.0626 43.011 74.2406 40.809 72.5816C37.927 70.4056 43.366 57.4766 43.366 57.4766L61.607 48.0756Z" fill="#0BA857"/>
<path d="M89.748 25.5176C95.545 18.7606 101.338 9.24364 97.442 3.95764C92.597 -2.60836 81.476 0.266637 72.623 3.49864C76.794 11.9766 82.708 19.3566 89.748 25.5176Z" fill="#FB719A"/>
<path d="M25.7399 37.1577C25.7399 37.1577 5.56887 42.7607 4.43387 51.0777C3.29887 59.3927 13.0459 56.6107 13.0459 56.6107C13.0459 56.6107 -3.33713 64.0197 1.41287 72.3977C6.16187 80.7747 17.1529 69.8207 17.1529 69.8207C17.1529 69.8207 16.1349 72.1976 19.1299 76.4886C24.4369 84.0976 41.5139 59.7617 41.5139 59.7617L25.7399 37.1577Z" fill="#FB719A"/>
<path d="M28.3437 40.8917C28.3437 40.8917 14.4937 44.7367 13.7137 50.4487C12.9327 56.1577 19.6267 54.2457 19.6267 54.2457C19.6267 54.2457 8.3777 59.3317 11.6377 65.0867C14.9007 70.8367 22.4477 63.3187 22.4477 63.3187C22.4477 63.3187 21.7487 64.9497 23.8027 67.8947C27.4497 73.1197 39.1747 56.4107 39.1747 56.4107L28.3437 40.8917Z" fill="#FFB71A"/>
<path d="M72.6252 3.49762C34.0892 20.9876 25.7402 37.1566 25.7402 37.1566C27.5112 51.2646 41.5142 59.7606 41.5142 59.7606C40.4922 60.4736 59.4722 59.5266 89.7502 25.5166C82.7092 19.3566 76.7952 11.9766 72.6252 3.49762Z" fill="#5BCACE"/>
<path d="M63.992 42.3037C59.37 45.5327 51.6471 45.1996 48.0631 40.0596C44.4761 34.9196 44.1371 27.6366 49.9661 23.5766C54.5871 20.3496 61.758 21.2646 65.3431 26.4056C68.93 31.5426 68.612 39.0787 63.992 42.3037Z" fill="#0BA857"/>
<path d="M63.7215 27.6616C61.9625 25.1346 59.1315 23.8646 56.3365 23.8346C54.5105 23.8106 52.6975 24.3216 51.2115 25.3606C46.4695 28.6656 46.7445 34.5936 49.6655 38.7726C52.0455 42.1916 56.6825 42.9936 60.3455 41.7396C61.1655 41.4626 61.9375 41.0796 62.6225 40.6026C66.3855 37.9786 66.6425 31.8416 63.7215 27.6616Z" fill="#F8F8F8"/>
</svg>
