<svg width="53" height="50" viewBox="0 0 53 50" fill="none" xmlns="http://www.w3.org/2000/svg">
<path d="M40.8125 6.39969L52.3267 19.5523L41.4724 49.5455L29.959 36.3937L40.8125 6.39969Z" fill="#6E8F06"/>
<path d="M48.9339 19.9687L42.0063 12.0564L40.9424 14.9936L39.8149 13.7049L33.2852 31.7497L34.4134 33.0376L33.3495 35.9757L40.2779 43.8888L41.3402 40.9508L42.4676 42.2387L48.9982 24.194L47.87 22.906L48.9339 19.9687Z" fill="#383332"/>
<path d="M39.0321 31.6248C38.8227 31.386 38.5567 31.3868 38.2629 31.6248C37.9822 31.8559 37.7325 32.2529 37.5464 32.7701C37.3502 33.3106 37.2556 33.8821 37.2688 34.4249C37.2804 34.9537 37.3952 35.3577 37.5976 35.5888C37.7999 35.8198 38.0512 35.833 38.328 35.6353C38.611 35.4306 38.8646 35.0398 39.0608 34.5009C39.2484 33.979 39.3492 33.4137 39.3492 32.8663C39.3492 32.2932 39.2399 31.8621 39.0321 31.6248Z" fill="#FFAA00"/>
<path d="M44.7336 20.4099L42.298 17.6285L40.2897 23.1797L41.58 24.653L42.4074 22.3632L43.3891 23.4837L42.1515 26.9025L41.5769 26.245C41.2334 25.8526 40.8875 25.7634 40.5425 25.986C40.1796 26.2201 39.8283 26.7986 39.4996 27.7074L38.7109 29.8856L40.0547 31.4201L40.6379 29.8103L41.266 30.5284C41.9468 31.3053 42.7594 30.6509 43.4364 28.7798L44.8391 24.9058C45.2539 23.759 45.4315 22.7905 45.3633 22.0406C45.3082 21.3722 45.0965 20.8248 44.7336 20.4099Z" fill="#FFAA00"/>
<path d="M29.9583 36.3936L41.4717 49.5455L12.188 43.6004L0.673828 30.4485L29.9583 36.3936Z" fill="#5A7505"/>
<path d="M25.2892 36.5402L7.67245 32.964L8.79991 34.2519L5.93164 33.6696L12.8585 41.5827L15.7267 42.1651L16.8542 43.4531L34.4725 47.03L33.3442 45.7413L36.2125 46.3236L29.2857 38.4105L26.4174 37.8281L25.2892 36.5402Z" fill="#2E2A29"/>
<path d="M21.3034 41.5897C20.7707 41.4819 20.3753 41.4796 20.1574 41.5812C19.9519 41.6805 19.9472 41.8534 20.1457 42.0798C20.3535 42.3171 20.7405 42.5691 21.2616 42.8087C21.7656 43.0428 22.3099 43.2235 22.824 43.3274C23.3374 43.4329 23.7243 43.4407 23.9538 43.3554C24.188 43.2693 24.2051 43.0987 23.998 42.8614C23.798 42.6327 23.425 42.3838 22.9202 42.1418C22.3914 41.889 21.83 41.6967 21.3034 41.5897Z" fill="#FF8800"/>
<path d="M19.4425 36.6899L13.25 35.4329L15.3809 37.867L18.6624 38.5338L17.7831 37.5289L20.2784 38.0352L21.5904 39.5349L20.1272 39.2379C19.2533 39.0611 18.6562 39.0169 18.3492 39.1115C18.0235 39.2115 18.0351 39.4643 18.384 39.8621L19.22 40.8166L22.6372 41.5114L22.0192 40.805L23.6181 41.1292C25.3489 41.4812 25.9552 41.2005 25.2372 40.3793L23.7499 38.6804C23.3095 38.1771 22.6799 37.7506 21.8866 37.418C21.1856 37.1218 20.3652 36.8768 19.4425 36.6899Z" fill="#FF8800"/>
<path d="M40.8118 6.39967L29.9583 36.3936L0.673828 30.4485L11.5281 0.454544L40.8118 6.39967Z" fill="#8AB307"/>
<path d="M33.8795 8.25218L16.2619 4.67595L15.1981 7.61323L12.3298 7.0309L5.80078 25.0741L8.66828 25.6564L7.60518 28.5945L25.2227 32.1715L26.2866 29.2334L29.1541 29.8158L35.6846 11.7718L32.8164 11.1895L33.8795 8.25218Z" fill="#474140"/>
<path d="M17.7741 22.4253C17.2421 22.3167 16.6854 22.4361 16.1659 22.7649C15.6673 23.0836 15.3051 23.5264 15.1175 24.0443C14.9221 24.5833 14.9492 25.1059 15.1927 25.5556C15.4261 25.9945 15.8255 26.2838 16.3396 26.3877C16.8537 26.4923 17.384 26.3923 17.8857 26.1031C18.3983 25.8061 18.7736 25.3657 18.9698 24.826C19.1582 24.3041 19.1435 23.7846 18.9271 23.3248C18.7015 22.8456 18.3014 22.5323 17.7741 22.4253Z" fill="#FFD321"/>
<path d="M25.2678 10.4838L19.0738 9.2261L17.0654 14.7773L20.3454 15.4434L21.1744 13.1536L23.6697 13.6599L22.4321 17.0788L20.9689 16.781C20.0942 16.6034 19.3366 16.6818 18.7031 17.0222C18.037 17.3796 17.5307 18.0209 17.2019 18.9297L16.4141 21.1063L19.8306 21.8003L20.4137 20.1905L22.0134 20.5146C23.7433 20.8667 25.1856 19.9571 25.8625 18.0853L27.2645 14.2113C27.6794 13.0644 27.6685 12.1735 27.2304 11.5733C26.8496 11.0367 26.1898 10.6699 25.2678 10.4838Z" fill="#FFD321"/>
</svg>
