<svg width="49" height="50" viewBox="0 0 49 50" fill="none" xmlns="http://www.w3.org/2000/svg">
<path d="M12.9778 25.3764L17.05 32.9838L4.65817 23.0765L0.585938 15.469L12.9778 25.3764Z" fill="#0E4DA1"/>
<path d="M34.4788 0.546417L38.551 8.15389L36.0239 24.6295L31.9531 17.0228L34.4788 0.546417Z" fill="#21C4FF"/>
<path d="M25.2256 28.5823L29.2978 36.1898L14.5214 49.4537L10.4492 41.8462L25.2256 28.5823Z" fill="#2181FF"/>
<path d="M25.2256 28.5823L29.2978 36.1898L14.5214 49.4537L10.4492 41.8462L25.2256 28.5823Z" fill="#125FC7"/>
<path d="M44.3408 26.9229L48.413 34.5311L29.2988 36.1898L25.2266 28.5823L44.3408 26.9229Z" fill="#156FE8"/>
<g opacity="0.6">
<path d="M44.5656 27.3462L44.3398 26.9229L25.2256 28.5823L10.4492 41.8462L10.6699 42.2587L10.6909 42.2681L25.4673 29.0042L44.5656 27.3462Z" fill="#21C4FF"/>
<path d="M0.828281 15.8909L13.1926 25.7758L12.9784 25.3763L0.638672 15.5109L0.828281 15.8909Z" fill="#21C4FF"/>
</g>
<path d="M34.478 0.546402L31.9523 17.0228L44.3398 26.9229L25.2256 28.5823L10.4492 41.8462L12.9778 25.3764L0.585938 15.469L19.7045 13.8161L34.478 0.546402Z" fill="#2181FF"/>
</svg>
