<svg width="46" height="46" viewBox="0 0 46 46" fill="none" xmlns="http://www.w3.org/2000/svg">
<path d="M14.7266 31.2713L45.9555 0.0441284L42.3371 21.5694L18.5144 35.06L14.7266 31.2713Z" fill="#EDEDED"/>
<path d="M14.7265 31.2713L45.9553 0.0441284L24.4301 3.66246L10.9395 27.4843L14.7265 31.2713Z" fill="#DBDBDB"/>
<path d="M18.5143 35.06L20.1158 34.0649L16.4211 29.5775L11.9328 25.8828L10.9395 27.4843L14.7265 31.2713L18.5143 35.06Z" fill="#DBDBDB"/>
<path d="M44.4566 1.54173C44.4566 1.54173 42.7744 3.30296 40.2497 5.94391C38.9723 7.24974 37.4854 8.77394 35.8902 10.4082C34.2834 12.0292 32.5693 13.7585 30.8551 15.4886C29.1258 17.2028 27.3956 18.9161 25.7747 20.5246C24.1413 22.119 22.6162 23.6076 21.3104 24.8833C18.6694 27.4088 16.9082 29.0902 16.9082 29.0902C16.9082 29.0902 18.5913 27.3298 21.116 24.6898C22.3925 23.3822 23.8794 21.8588 25.4746 20.2255C27.0823 18.6027 28.7965 16.8743 30.5098 15.1442C32.2399 13.43 33.9701 11.7176 35.591 10.1091C37.2253 8.51384 38.7504 7.02603 40.0562 5.7495C42.6963 3.22484 44.4566 1.54173 44.4566 1.54173Z" fill="white"/>
<path opacity="0.4" d="M42.3371 21.5694L34.1053 26.2299L38.2927 1.33221L45.9563 0.0441284L44.1472 10.8059L42.3371 21.5694ZM29.0773 2.88216L24.431 3.66246L20.2614 11.0243L16.5508 33.0946L18.5153 35.06L24.21 31.835L29.0773 2.88216Z" fill="white"/>
<path d="M6.00434 43.5785L2.41797 39.9922L9.31639 30.6508L15.3431 36.6766L6.00434 43.5785Z" fill="#FFD321"/>
<path d="M12.1636 39.0255L15.3434 36.6766L9.31674 30.6508L6.96875 33.8288L9.29456 36.705L12.1636 39.0255Z" fill="#FFAA00"/>
<path d="M15.7466 30.2522L8.46909 24.4572L6.64484 18.0905L1.63281 25.083L10.2552 35.7436L20.9157 44.3659L27.9083 39.3539L21.5424 37.5305L15.7466 30.2522Z" fill="#FFD321"/>
<path d="M8.46909 24.4572L6.64484 18.0905L1.63281 25.083L10.2552 35.7436L15.7466 30.2522L8.46909 24.4572Z" fill="url(#paint0_linear_58_10089)"/>
<path d="M14.9414 31.0547L11.2885 31.6761L10.668 35.3317L14.3227 34.7103L14.9414 31.0547Z" fill="#FFFB21"/>
<path d="M14.7502 31.2473L11.455 31.8439L10.8594 35.1399L14.1555 34.5452L14.7502 31.2473Z" fill="#FF7B00"/>
<path d="M14.5706 31.4257L11.5781 31.9672L12.8058 33.1932L14.5706 31.4257Z" fill="#FF3B3B"/>
<path d="M11.5777 31.9672L11.0371 34.9615L12.8054 33.1932L11.5777 31.9672Z" fill="#D61C1C"/>
<path d="M11.0371 34.9615L14.0296 34.4191L12.8054 33.1932L11.0371 34.9615Z" fill="#A31616"/>
<path d="M12.8047 33.1932L14.0288 34.4191L14.5694 31.4257L12.8047 33.1932Z" fill="#D61C1C"/>
<path d="M2.41797 39.9922L6.00345 43.5785L6.88317 42.9279C6.98171 41.962 6.64261 40.9225 5.85876 40.1387C5.07402 39.3548 4.03273 39.0139 3.06601 39.1151L2.41797 39.9922Z" fill="#FFAA00"/>
<path d="M5.28358 45.0557C4.08517 46.2559 2.14197 46.2559 0.941779 45.0557C-0.256635 43.8564 -0.256635 41.9141 0.941779 40.7148C2.14197 39.5155 4.08428 39.5155 5.28358 40.7139C6.48377 41.9141 6.48377 43.8564 5.28358 45.0557Z" fill="#FFD321"/>
<path d="M4.44675 44.2186C3.70995 44.9554 2.51597 44.9554 1.77916 44.2186C1.04236 43.4818 1.04236 42.2878 1.77916 41.551C2.51597 40.8142 3.71084 40.8142 4.44675 41.551C5.18355 42.2878 5.18355 43.4818 4.44675 44.2186Z" fill="#FFAA00"/>
<defs>
<linearGradient id="paint0_linear_58_10089" x1="13.7229" y1="32.1899" x2="5.62331" y2="24.0903" gradientUnits="userSpaceOnUse">
<stop stop-color="#FFAA00"/>
<stop offset="1" stop-color="#FFD321"/>
</linearGradient>
</defs>
</svg>
